<?xml version="1.0" encoding="UTF-8" standalone="no"?>
<svg
   xmlns:dc="http://purl.org/dc/elements/1.1/"
   xmlns:cc="http://creativecommons.org/ns#"
   xmlns:rdf="http://www.w3.org/1999/02/22-rdf-syntax-ns#"
   xmlns:svg="http://www.w3.org/2000/svg"
   xmlns="http://www.w3.org/2000/svg"
   xmlns:sodipodi="http://sodipodi.sourceforge.net/DTD/sodipodi-0.dtd"
   xmlns:inkscape="http://www.inkscape.org/namespaces/inkscape"
   style="fill-opacity:1; color-rendering:auto; color-interpolation:auto; text-rendering:auto; stroke:black; stroke-linecap:square; stroke-miterlimit:10; shape-rendering:auto; stroke-opacity:1; fill:black; stroke-dasharray:none; font-weight:normal; stroke-width:1; font-family:'Dialog'; font-style:normal; stroke-linejoin:miter; font-size:12px; stroke-dashoffset:0; image-rendering:auto;"
   width="1385"
   height="740"
   id="svg2"
   version="1.1"
   inkscape:version="0.48.2 r9819"
   sodipodi:docname="MotionPlanning.svg"
   inkscape:export-filename="C:\Users\Kochdumper\Documents\Repositories\AROCpublic\images\MotionPlanning.png"
   inkscape:export-xdpi="100"
   inkscape:export-ydpi="100">
  <metadata
     id="metadata325">
    <rdf:RDF>
      <cc:Work
         rdf:about="">
        <dc:format>image/svg+xml</dc:format>
        <dc:type
           rdf:resource="http://purl.org/dc/dcmitype/StillImage" />
        <dc:title></dc:title>
      </cc:Work>
    </rdf:RDF>
  </metadata>
  <sodipodi:namedview
     pagecolor="#ffffff"
     bordercolor="#666666"
     borderopacity="1"
     objecttolerance="10"
     gridtolerance="10"
     guidetolerance="10"
     inkscape:pageopacity="0"
     inkscape:pageshadow="2"
     inkscape:window-width="2560"
     inkscape:window-height="1336"
     id="namedview323"
     showgrid="false"
     inkscape:zoom="0.56284552"
     inkscape:cx="650.35728"
     inkscape:cy="399.66133"
     inkscape:window-x="3832"
     inkscape:window-y="-8"
     inkscape:window-maximized="1"
     inkscape:current-layer="svg2" />
  <!--Generated by the Batik Graphics2D SVG Generator-->
  <defs
     id="genericDefs">
    <clipPath
       clipPathUnits="userSpaceOnUse"
       id="clipPath4233">
      <rect
         style="opacity:0.34513275;fill:#ff6600;stroke:none"
         id="rect4235"
         width="473.15326"
         height="394.29437"
         x="525.01086"
         y="131.61491" />
    </clipPath>
    <clipPath
       clipPathUnits="userSpaceOnUse"
       id="clipPath4237">
      <rect
         style="opacity:0.34513275;fill:#ff6600;stroke:none"
         id="rect4239"
         width="473.15326"
         height="394.29437"
         x="525.01086"
         y="131.61491" />
    </clipPath>
  </defs>
  <g
     id="g5"
     clip-path="url(#clipPath4237)">
    <defs
       id="defs1">
      <clipPath
         clipPathUnits="userSpaceOnUse"
         id="clipPath1">
        <path
           d="M0 0 L1385 0 L1385 740 L0 740 L0 0 Z"
           id="path9" />
      </clipPath>
    </defs>
    <g
       style="fill:white; stroke:white;"
       id="g11">
      <rect
         x="0"
         y="0"
         width="1385"
         style="clip-path:url(#clipPath1); stroke:none;"
         height="740"
         id="rect13"
         clip-path="url(#clipPath1)" />
    </g>
    <g
       style="fill:white; text-rendering:optimizeSpeed; color-rendering:optimizeSpeed; image-rendering:optimizeSpeed; shape-rendering:crispEdges; stroke:white; color-interpolation:sRGB;"
       id="g15">
      <rect
         x="0"
         width="1385"
         height="740"
         y="0"
         style="stroke:none;"
         id="rect17" />
      <path
         style="stroke:none;"
         d="M220.375 623 L1212.625 623 L1212.625 56 L220.375 56 Z"
         id="path19" />
    </g>
    <g
       style="fill:rgb(38,38,38); text-rendering:geometricPrecision; image-rendering:optimizeQuality; color-rendering:optimizeQuality; stroke-linejoin:round; stroke:rgb(38,38,38); color-interpolation:linearRGB; stroke-width:1.6667;"
       id="g21">
      <line
         y2="623"
         style="fill:none;"
         x1="220.375"
         x2="1212.625"
         y1="623"
         id="line23" />
      <line
         y2="56"
         style="fill:none;"
         x1="220.375"
         x2="1212.625"
         y1="56"
         id="line25" />
      <line
         y2="613.095"
         style="fill:none;"
         x1="220.375"
         x2="220.375"
         y1="623"
         id="line27" />
      <line
         y2="613.095"
         style="fill:none;"
         x1="362.125"
         x2="362.125"
         y1="623"
         id="line29" />
      <line
         y2="613.095"
         style="fill:none;"
         x1="503.875"
         x2="503.875"
         y1="623"
         id="line31" />
      <line
         y2="613.095"
         style="fill:none;"
         x1="645.625"
         x2="645.625"
         y1="623"
         id="line33" />
      <line
         y2="613.095"
         style="fill:none;"
         x1="787.375"
         x2="787.375"
         y1="623"
         id="line35" />
      <line
         y2="613.095"
         style="fill:none;"
         x1="929.125"
         x2="929.125"
         y1="623"
         id="line37" />
      <line
         y2="613.095"
         style="fill:none;"
         x1="1070.875"
         x2="1070.875"
         y1="623"
         id="line39" />
      <line
         y2="613.095"
         style="fill:none;"
         x1="1212.625"
         x2="1212.625"
         y1="623"
         id="line41" />
      <line
         y2="65.905"
         style="fill:none;"
         x1="220.375"
         x2="220.375"
         y1="56"
         id="line43" />
      <line
         y2="65.905"
         style="fill:none;"
         x1="362.125"
         x2="362.125"
         y1="56"
         id="line45" />
      <line
         y2="65.905"
         style="fill:none;"
         x1="503.875"
         x2="503.875"
         y1="56"
         id="line47" />
      <line
         y2="65.905"
         style="fill:none;"
         x1="645.625"
         x2="645.625"
         y1="56"
         id="line49" />
      <line
         y2="65.905"
         style="fill:none;"
         x1="787.375"
         x2="787.375"
         y1="56"
         id="line51" />
      <line
         y2="65.905"
         style="fill:none;"
         x1="929.125"
         x2="929.125"
         y1="56"
         id="line53" />
      <line
         y2="65.905"
         style="fill:none;"
         x1="1070.875"
         x2="1070.875"
         y1="56"
         id="line55" />
      <line
         y2="65.905"
         style="fill:none;"
         x1="1212.625"
         x2="1212.625"
         y1="56"
         id="line57" />
    </g>
    <g
       transform="translate(220.375,636.3333)"
       style="font-size:33.3333px; fill:rgb(38,38,38); text-rendering:geometricPrecision; image-rendering:optimizeQuality; color-rendering:optimizeQuality; font-family:'SansSerif'; stroke:rgb(38,38,38); color-interpolation:linearRGB;"
       id="g59">
      <path
         style="stroke:none;"
         d="M-8.125 22.3438 Q-8.125 18.1562 -7.2656 15.6016 Q-6.4062 13.0469 -4.7031 11.6641 Q-3 10.2812 -0.4219 10.2812 Q1.4688 10.2812 2.9062 11.0469 Q4.3438 11.8125 5.2734 13.2578 Q6.2031 14.7031 6.7422 16.7734 Q7.2812 18.8438 7.2812 22.3438 Q7.2812 26.5 6.4219 29.0547 Q5.5625 31.6094 3.8672 33.0078 Q2.1719 34.4062 -0.4219 34.4062 Q-3.8438 34.4062 -5.7969 31.9531 Q-8.125 29 -8.125 22.3438 ZM-5.1562 22.3438 Q-5.1562 28.1719 -3.7891 30.0938 Q-2.4219 32.0156 -0.4219 32.0156 Q1.5625 32.0156 2.9297 30.0859 Q4.2969 28.1562 4.2969 22.3438 Q4.2969 16.5156 2.9297 14.6016 Q1.5625 12.6875 -0.4531 12.6875 Q-2.4531 12.6875 -3.6562 14.375 Q-5.1562 16.5312 -5.1562 22.3438 Z"
         id="path61" />
    </g>
    <g
       transform="translate(362.125,636.3333)"
       style="font-size:33.3333px; fill:rgb(38,38,38); text-rendering:geometricPrecision; image-rendering:optimizeQuality; color-rendering:optimizeQuality; font-family:'SansSerif'; stroke:rgb(38,38,38); color-interpolation:linearRGB;"
       id="g63">
      <path
         style="stroke:none;"
         d="M-2.3906 31.2188 L-2.3906 34 L-18 34 Q-18.0312 32.9531 -17.6562 31.9844 Q-17.0625 30.3906 -15.75 28.8438 Q-14.4375 27.2969 -11.9531 25.2656 Q-8.1094 22.1094 -6.7578 20.2656 Q-5.4062 18.4219 -5.4062 16.7812 Q-5.4062 15.0469 -6.6328 13.8672 Q-7.8594 12.6875 -9.8438 12.6875 Q-11.9375 12.6875 -13.1953 13.9453 Q-14.4531 15.2031 -14.4688 17.4219 L-17.4531 17.1094 Q-17.1406 13.7812 -15.1484 12.0312 Q-13.1562 10.2812 -9.7812 10.2812 Q-6.3906 10.2812 -4.4062 12.1641 Q-2.4219 14.0469 -2.4219 16.8438 Q-2.4219 18.25 -3 19.625 Q-3.5781 21 -4.9219 22.5156 Q-6.2656 24.0312 -9.3906 26.6719 Q-12 28.8594 -12.7422 29.6406 Q-13.4844 30.4219 -13.9688 31.2188 L-2.3906 31.2188 ZM0.9018 22.3438 Q0.9018 18.1562 1.7612 15.6016 Q2.6206 13.0469 4.3237 11.6641 Q6.0268 10.2812 8.6049 10.2812 Q10.4956 10.2812 11.9331 11.0469 Q13.3706 11.8125 14.3003 13.2578 Q15.2299 14.7031 15.769 16.7734 Q16.3081 18.8438 16.3081 22.3438 Q16.3081 26.5 15.4487 29.0547 Q14.5893 31.6094 12.894 33.0078 Q11.1987 34.4062 8.6049 34.4062 Q5.1831 34.4062 3.2299 31.9531 Q0.9018 29 0.9018 22.3438 ZM3.8706 22.3438 Q3.8706 28.1719 5.2378 30.0938 Q6.6049 32.0156 8.6049 32.0156 Q10.5893 32.0156 11.9565 30.0859 Q13.3237 28.1562 13.3237 22.3438 Q13.3237 16.5156 11.9565 14.6016 Q10.5893 12.6875 8.5737 12.6875 Q6.5737 12.6875 5.3706 14.375 Q3.8706 16.5312 3.8706 22.3438 Z"
         id="path65" />
    </g>
    <g
       transform="translate(503.875,636.3333)"
       style="font-size:33.3333px; fill:rgb(38,38,38); text-rendering:geometricPrecision; image-rendering:optimizeQuality; color-rendering:optimizeQuality; font-family:'SansSerif'; stroke:rgb(38,38,38); color-interpolation:linearRGB;"
       id="g67">
      <path
         style="stroke:none;"
         d="M-8.3281 34 L-8.3281 28.3438 L-18.5781 28.3438 L-18.5781 25.6875 L-7.7969 10.375 L-5.4375 10.375 L-5.4375 25.6875 L-2.2344 25.6875 L-2.2344 28.3438 L-5.4375 28.3438 L-5.4375 34 L-8.3281 34 ZM-8.3281 25.6875 L-8.3281 15.0312 L-15.7344 25.6875 L-8.3281 25.6875 ZM0.9018 22.3438 Q0.9018 18.1562 1.7612 15.6016 Q2.6206 13.0469 4.3237 11.6641 Q6.0268 10.2812 8.6049 10.2812 Q10.4956 10.2812 11.9331 11.0469 Q13.3706 11.8125 14.3003 13.2578 Q15.2299 14.7031 15.769 16.7734 Q16.3081 18.8438 16.3081 22.3438 Q16.3081 26.5 15.4487 29.0547 Q14.5893 31.6094 12.894 33.0078 Q11.1987 34.4062 8.6049 34.4062 Q5.1831 34.4062 3.2299 31.9531 Q0.9018 29 0.9018 22.3438 ZM3.8706 22.3438 Q3.8706 28.1719 5.2378 30.0938 Q6.6049 32.0156 8.6049 32.0156 Q10.5893 32.0156 11.9565 30.0859 Q13.3237 28.1562 13.3237 22.3438 Q13.3237 16.5156 11.9565 14.6016 Q10.5893 12.6875 8.5737 12.6875 Q6.5737 12.6875 5.3706 14.375 Q3.8706 16.5312 3.8706 22.3438 Z"
         id="path69" />
    </g>
    <g
       transform="translate(645.625,636.3333)"
       style="font-size:33.3333px; fill:rgb(38,38,38); text-rendering:geometricPrecision; image-rendering:optimizeQuality; color-rendering:optimizeQuality; font-family:'SansSerif'; stroke:rgb(38,38,38); color-interpolation:linearRGB;"
       id="g71">
      <path
         style="stroke:none;"
         d="M-2.5781 16.1562 L-5.4688 16.3906 Q-5.8438 14.6875 -6.5625 13.9062 Q-7.7344 12.6719 -9.4531 12.6719 Q-10.8438 12.6719 -11.8906 13.4375 Q-13.2656 14.4375 -14.0547 16.3516 Q-14.8438 18.2656 -14.875 21.8125 Q-13.8281 20.2188 -12.3125 19.4453 Q-10.7969 18.6719 -9.1406 18.6719 Q-6.2344 18.6719 -4.1953 20.8125 Q-2.1562 22.9531 -2.1562 26.3281 Q-2.1562 28.5469 -3.1172 30.4609 Q-4.0781 32.375 -5.7578 33.3906 Q-7.4375 34.4062 -9.5625 34.4062 Q-13.1875 34.4062 -15.4766 31.7344 Q-17.7656 29.0625 -17.7656 22.9531 Q-17.7656 16.0938 -15.2344 12.9844 Q-13.0156 10.2812 -9.2812 10.2812 Q-6.5 10.2812 -4.7188 11.8438 Q-2.9375 13.4062 -2.5781 16.1562 ZM-14.4219 26.3438 Q-14.4219 27.8438 -13.7891 29.2109 Q-13.1562 30.5781 -12.0078 31.2969 Q-10.8594 32.0156 -9.6094 32.0156 Q-7.7656 32.0156 -6.4453 30.5312 Q-5.125 29.0469 -5.125 26.5 Q-5.125 24.0625 -6.4297 22.6484 Q-7.7344 21.2344 -9.7188 21.2344 Q-11.6875 21.2344 -13.0547 22.6484 Q-14.4219 24.0625 -14.4219 26.3438 ZM0.9018 22.3438 Q0.9018 18.1562 1.7612 15.6016 Q2.6206 13.0469 4.3237 11.6641 Q6.0268 10.2812 8.6049 10.2812 Q10.4956 10.2812 11.9331 11.0469 Q13.3706 11.8125 14.3003 13.2578 Q15.2299 14.7031 15.769 16.7734 Q16.3081 18.8438 16.3081 22.3438 Q16.3081 26.5 15.4487 29.0547 Q14.5893 31.6094 12.894 33.0078 Q11.1987 34.4062 8.6049 34.4062 Q5.1831 34.4062 3.2299 31.9531 Q0.9018 29 0.9018 22.3438 ZM3.8706 22.3438 Q3.8706 28.1719 5.2378 30.0938 Q6.6049 32.0156 8.6049 32.0156 Q10.5893 32.0156 11.9565 30.0859 Q13.3237 28.1562 13.3237 22.3438 Q13.3237 16.5156 11.9565 14.6016 Q10.5893 12.6875 8.5737 12.6875 Q6.5737 12.6875 5.3706 14.375 Q3.8706 16.5312 3.8706 22.3438 Z"
         id="path73" />
    </g>
    <g
       transform="translate(787.375,636.3333)"
       style="font-size:33.3333px; fill:rgb(38,38,38); text-rendering:geometricPrecision; image-rendering:optimizeQuality; color-rendering:optimizeQuality; font-family:'SansSerif'; stroke:rgb(38,38,38); color-interpolation:linearRGB;"
       id="g75">
      <path
         style="stroke:none;"
         d="M-13.1719 21.1875 Q-14.9688 20.5312 -15.8438 19.3047 Q-16.7188 18.0781 -16.7188 16.375 Q-16.7188 13.7969 -14.8594 12.0391 Q-13 10.2812 -9.9219 10.2812 Q-6.8281 10.2812 -4.9453 12.0781 Q-3.0625 13.875 -3.0625 16.4531 Q-3.0625 18.0938 -3.9219 19.3125 Q-4.7812 20.5312 -6.5469 21.1875 Q-4.375 21.9062 -3.2344 23.4844 Q-2.0938 25.0625 -2.0938 27.25 Q-2.0938 30.2812 -4.2422 32.3438 Q-6.3906 34.4062 -9.875 34.4062 Q-13.375 34.4062 -15.5156 32.3359 Q-17.6562 30.2656 -17.6562 27.1719 Q-17.6562 24.8594 -16.4922 23.3047 Q-15.3281 21.75 -13.1719 21.1875 ZM-13.75 16.2812 Q-13.75 17.9531 -12.6719 19.0156 Q-11.5938 20.0781 -9.8594 20.0781 Q-8.1875 20.0781 -7.1172 19.0234 Q-6.0469 17.9688 -6.0469 16.4375 Q-6.0469 14.8438 -7.1484 13.7578 Q-8.25 12.6719 -9.8906 12.6719 Q-11.5625 12.6719 -12.6562 13.7344 Q-13.75 14.7969 -13.75 16.2812 ZM-14.6875 27.1875 Q-14.6875 28.4219 -14.0938 29.5859 Q-13.5 30.75 -12.3438 31.3828 Q-11.1875 32.0156 -9.8438 32.0156 Q-7.7656 32.0156 -6.4141 30.6797 Q-5.0625 29.3438 -5.0625 27.2812 Q-5.0625 25.1875 -6.4531 23.8203 Q-7.8438 22.4531 -9.9375 22.4531 Q-11.9844 22.4531 -13.3359 23.8047 Q-14.6875 25.1562 -14.6875 27.1875 ZM0.9018 22.3438 Q0.9018 18.1562 1.7612 15.6016 Q2.6206 13.0469 4.3237 11.6641 Q6.0268 10.2812 8.6049 10.2812 Q10.4956 10.2812 11.9331 11.0469 Q13.3706 11.8125 14.3003 13.2578 Q15.2299 14.7031 15.769 16.7734 Q16.3081 18.8438 16.3081 22.3438 Q16.3081 26.5 15.4487 29.0547 Q14.5893 31.6094 12.894 33.0078 Q11.1987 34.4062 8.6049 34.4062 Q5.1831 34.4062 3.2299 31.9531 Q0.9018 29 0.9018 22.3438 ZM3.8706 22.3438 Q3.8706 28.1719 5.2378 30.0938 Q6.6049 32.0156 8.6049 32.0156 Q10.5893 32.0156 11.9565 30.0859 Q13.3237 28.1562 13.3237 22.3438 Q13.3237 16.5156 11.9565 14.6016 Q10.5893 12.6875 8.5737 12.6875 Q6.5737 12.6875 5.3706 14.375 Q3.8706 16.5312 3.8706 22.3438 Z"
         id="path77" />
    </g>
    <g
       transform="translate(929.125,636.3333)"
       style="font-size:33.3333px; fill:rgb(38,38,38); text-rendering:geometricPrecision; image-rendering:optimizeQuality; color-rendering:optimizeQuality; font-family:'SansSerif'; stroke:rgb(38,38,38); color-interpolation:linearRGB;"
       id="g79">
      <path
         style="stroke:none;"
         d="M-15.7031 34 L-18.6094 34 L-18.6094 15.5156 Q-19.6562 16.5156 -21.3516 17.5156 Q-23.0469 18.5156 -24.4062 19.0156 L-24.4062 16.2031 Q-21.9688 15.0625 -20.1484 13.4375 Q-18.3281 11.8125 -17.5781 10.2812 L-15.7031 10.2812 L-15.7031 34 ZM-8.0982 22.3438 Q-8.0982 18.1562 -7.2388 15.6016 Q-6.3794 13.0469 -4.6763 11.6641 Q-2.9732 10.2812 -0.3951 10.2812 Q1.4956 10.2812 2.9331 11.0469 Q4.3706 11.8125 5.3003 13.2578 Q6.2299 14.7031 6.769 16.7734 Q7.3081 18.8438 7.3081 22.3438 Q7.3081 26.5 6.4487 29.0547 Q5.5893 31.6094 3.894 33.0078 Q2.1987 34.4062 -0.3951 34.4062 Q-3.8169 34.4062 -5.7701 31.9531 Q-8.0982 29 -8.0982 22.3438 ZM-5.1294 22.3438 Q-5.1294 28.1719 -3.7622 30.0938 Q-2.3951 32.0156 -0.3951 32.0156 Q1.5893 32.0156 2.9565 30.0859 Q4.3237 28.1562 4.3237 22.3438 Q4.3237 16.5156 2.9565 14.6016 Q1.5893 12.6875 -0.4263 12.6875 Q-2.4263 12.6875 -3.6294 14.375 Q-5.1294 16.5312 -5.1294 22.3438 ZM10.4286 22.3438 Q10.4286 18.1562 11.288 15.6016 Q12.1474 13.0469 13.8505 11.6641 Q15.5536 10.2812 18.1318 10.2812 Q20.0224 10.2812 21.4599 11.0469 Q22.8974 11.8125 23.8271 13.2578 Q24.7568 14.7031 25.2958 16.7734 Q25.8349 18.8438 25.8349 22.3438 Q25.8349 26.5 24.9755 29.0547 Q24.1161 31.6094 22.4208 33.0078 Q20.7255 34.4062 18.1318 34.4062 Q14.7099 34.4062 12.7568 31.9531 Q10.4286 29 10.4286 22.3438 ZM13.3974 22.3438 Q13.3974 28.1719 14.7646 30.0938 Q16.1318 32.0156 18.1318 32.0156 Q20.1161 32.0156 21.4833 30.0859 Q22.8505 28.1562 22.8505 22.3438 Q22.8505 16.5156 21.4833 14.6016 Q20.1161 12.6875 18.1005 12.6875 Q16.1005 12.6875 14.8974 14.375 Q13.3974 16.5312 13.3974 22.3438 Z"
         id="path81" />
    </g>
    <g
       transform="translate(1070.875,636.3333)"
       style="font-size:33.3333px; fill:rgb(38,38,38); text-rendering:geometricPrecision; image-rendering:optimizeQuality; color-rendering:optimizeQuality; font-family:'SansSerif'; stroke:rgb(38,38,38); color-interpolation:linearRGB;"
       id="g83">
      <path
         style="stroke:none;"
         d="M-15.7031 34 L-18.6094 34 L-18.6094 15.5156 Q-19.6562 16.5156 -21.3516 17.5156 Q-23.0469 18.5156 -24.4062 19.0156 L-24.4062 16.2031 Q-21.9688 15.0625 -20.1484 13.4375 Q-18.3281 11.8125 -17.5781 10.2812 L-15.7031 10.2812 L-15.7031 34 ZM7.1362 31.2188 L7.1362 34 L-8.4732 34 Q-8.5044 32.9531 -8.1294 31.9844 Q-7.5357 30.3906 -6.2232 28.8438 Q-4.9107 27.2969 -2.4263 25.2656 Q1.4174 22.1094 2.769 20.2656 Q4.1206 18.4219 4.1206 16.7812 Q4.1206 15.0469 2.894 13.8672 Q1.6674 12.6875 -0.3169 12.6875 Q-2.4107 12.6875 -3.6685 13.9453 Q-4.9263 15.2031 -4.9419 17.4219 L-7.9263 17.1094 Q-7.6138 13.7812 -5.6216 12.0312 Q-3.6294 10.2812 -0.2544 10.2812 Q3.1362 10.2812 5.1206 12.1641 Q7.1049 14.0469 7.1049 16.8438 Q7.1049 18.25 6.5268 19.625 Q5.9487 21 4.6049 22.5156 Q3.2612 24.0312 0.1362 26.6719 Q-2.4732 28.8594 -3.2154 29.6406 Q-3.9576 30.4219 -4.4419 31.2188 L7.1362 31.2188 ZM10.4286 22.3438 Q10.4286 18.1562 11.288 15.6016 Q12.1474 13.0469 13.8505 11.6641 Q15.5536 10.2812 18.1318 10.2812 Q20.0224 10.2812 21.4599 11.0469 Q22.8974 11.8125 23.8271 13.2578 Q24.7568 14.7031 25.2958 16.7734 Q25.8349 18.8438 25.8349 22.3438 Q25.8349 26.5 24.9755 29.0547 Q24.1161 31.6094 22.4208 33.0078 Q20.7255 34.4062 18.1318 34.4062 Q14.7099 34.4062 12.7568 31.9531 Q10.4286 29 10.4286 22.3438 ZM13.3974 22.3438 Q13.3974 28.1719 14.7646 30.0938 Q16.1318 32.0156 18.1318 32.0156 Q20.1161 32.0156 21.4833 30.0859 Q22.8505 28.1562 22.8505 22.3438 Q22.8505 16.5156 21.4833 14.6016 Q20.1161 12.6875 18.1005 12.6875 Q16.1005 12.6875 14.8974 14.375 Q13.3974 16.5312 13.3974 22.3438 Z"
         id="path85" />
    </g>
    <g
       transform="translate(1212.625,636.3333)"
       style="font-size:33.3333px; fill:rgb(38,38,38); text-rendering:geometricPrecision; image-rendering:optimizeQuality; color-rendering:optimizeQuality; font-family:'SansSerif'; stroke:rgb(38,38,38); color-interpolation:linearRGB;"
       id="g87">
      <path
         style="stroke:none;"
         d="M-15.7031 34 L-18.6094 34 L-18.6094 15.5156 Q-19.6562 16.5156 -21.3516 17.5156 Q-23.0469 18.5156 -24.4062 19.0156 L-24.4062 16.2031 Q-21.9688 15.0625 -20.1484 13.4375 Q-18.3281 11.8125 -17.5781 10.2812 L-15.7031 10.2812 L-15.7031 34 ZM1.1987 34 L1.1987 28.3438 L-9.0513 28.3438 L-9.0513 25.6875 L1.7299 10.375 L4.0893 10.375 L4.0893 25.6875 L7.2924 25.6875 L7.2924 28.3438 L4.0893 28.3438 L4.0893 34 L1.1987 34 ZM1.1987 25.6875 L1.1987 15.0312 L-6.2076 25.6875 L1.1987 25.6875 ZM10.4286 22.3438 Q10.4286 18.1562 11.288 15.6016 Q12.1474 13.0469 13.8505 11.6641 Q15.5536 10.2812 18.1318 10.2812 Q20.0224 10.2812 21.4599 11.0469 Q22.8974 11.8125 23.8271 13.2578 Q24.7568 14.7031 25.2958 16.7734 Q25.8349 18.8438 25.8349 22.3438 Q25.8349 26.5 24.9755 29.0547 Q24.1161 31.6094 22.4208 33.0078 Q20.7255 34.4062 18.1318 34.4062 Q14.7099 34.4062 12.7568 31.9531 Q10.4286 29 10.4286 22.3438 ZM13.3974 22.3438 Q13.3974 28.1719 14.7646 30.0938 Q16.1318 32.0156 18.1318 32.0156 Q20.1161 32.0156 21.4833 30.0859 Q22.8505 28.1562 22.8505 22.3438 Q22.8505 16.5156 21.4833 14.6016 Q20.1161 12.6875 18.1005 12.6875 Q16.1005 12.6875 14.8974 14.375 Q13.3974 16.5312 13.3974 22.3438 Z"
         id="path89" />
    </g>
    <g
       transform="translate(716.5005,680.6667)"
       style="font-size:50px; fill:rgb(38,38,38); text-rendering:geometricPrecision; image-rendering:optimizeQuality; color-rendering:optimizeQuality; font-family:'mwa_cmmi10'; stroke:rgb(38,38,38); color-interpolation:linearRGB;"
       id="g91">
      <path
         style="stroke:none;"
         d="M-10.3819 40.5623 Q-9.5069 41.2498 -7.8976 41.2498 Q-6.3351 41.2498 -5.1319 39.742 Q-3.9288 38.2342 -3.4913 36.4529 L-1.2257 27.5936 Q-0.6944 25.1717 -0.6944 24.2967 Q-0.6944 23.0467 -1.3897 22.1248 Q-2.0851 21.2029 -3.3194 21.2029 Q-4.9132 21.2029 -6.3038 22.1873 Q-7.6944 23.1717 -8.6476 24.7029 Q-9.6007 26.2342 -9.9913 27.7967 Q-10.0851 28.1092 -10.3819 28.1092 L-10.9913 28.1092 Q-11.3819 28.1092 -11.3819 27.6404 L-11.3819 27.4998 Q-10.8976 25.6404 -9.7257 23.8748 Q-8.5538 22.1092 -6.8585 21.0076 Q-5.1632 19.9061 -3.2257 19.9061 Q-1.3976 19.9061 0.079 20.8826 Q1.5556 21.8592 2.1649 23.5467 Q3.0243 21.9998 4.3524 20.9529 Q5.6806 19.9061 7.2743 19.9061 Q8.3368 19.9061 9.4618 20.2811 Q10.5868 20.6561 11.2978 21.4373 Q12.0087 22.2186 12.0087 23.3904 Q12.0087 24.6717 11.1884 25.5858 Q10.3681 26.4998 9.1024 26.4998 Q8.2899 26.4998 7.7587 25.9842 Q7.2274 25.4686 7.2274 24.6873 Q7.2274 23.6404 7.9462 22.8436 Q8.6649 22.0467 9.6649 21.9061 Q8.7587 21.2029 7.1649 21.2029 Q5.5556 21.2029 4.3759 22.6873 Q3.1962 24.1717 2.7118 26.0154 L0.5087 34.8436 Q-0.0226 36.8436 -0.0226 38.1404 Q-0.0226 39.4061 0.6962 40.3279 Q1.4149 41.2498 2.6024 41.2498 Q4.9462 41.2498 6.7899 39.1795 Q8.6337 37.1092 9.2274 34.6561 Q9.3212 34.3592 9.6181 34.3592 L10.2274 34.3592 Q10.4149 34.3592 10.5399 34.492 Q10.6649 34.6248 10.6649 34.7967 Q10.6649 34.8436 10.6181 34.9373 Q9.8993 37.9217 7.6337 40.242 Q5.3681 42.5623 2.5087 42.5623 Q0.6806 42.5623 -0.796 41.5701 Q-2.2726 40.5779 -2.8819 38.9061 Q-3.6632 40.3592 -5.046 41.4608 Q-6.4288 42.5623 -7.9913 42.5623 Q-9.0694 42.5623 -10.2022 42.1795 Q-11.3351 41.7967 -12.046 41.0154 Q-12.7569 40.2342 -12.7569 39.0467 Q-12.7569 37.8748 -11.9366 36.9061 Q-11.1163 35.9373 -9.8976 35.9373 Q-9.0694 35.9373 -8.5069 36.4451 Q-7.9444 36.9529 -7.9444 37.7498 Q-7.9444 38.7967 -8.6397 39.5779 Q-9.3351 40.3592 -10.3819 40.5623 Z"
         id="path93" />
    </g>
    <g
       style="fill:rgb(38,38,38); text-rendering:geometricPrecision; image-rendering:optimizeQuality; color-rendering:optimizeQuality; stroke-linejoin:round; stroke:rgb(38,38,38); color-interpolation:linearRGB; stroke-width:1.6667;"
       id="g95">
      <line
         y2="56"
         style="fill:none;"
         x1="220.375"
         x2="220.375"
         y1="623"
         id="line97" />
      <line
         y2="56"
         style="fill:none;"
         x1="1212.625"
         x2="1212.625"
         y1="623"
         id="line99" />
      <line
         y2="623"
         style="fill:none;"
         x1="220.375"
         x2="230.28"
         y1="623"
         id="line101" />
      <line
         y2="481.25"
         style="fill:none;"
         x1="220.375"
         x2="230.28"
         y1="481.25"
         id="line103" />
      <line
         y2="339.5"
         style="fill:none;"
         x1="220.375"
         x2="230.28"
         y1="339.5"
         id="line105" />
      <line
         y2="197.75"
         style="fill:none;"
         x1="220.375"
         x2="230.28"
         y1="197.75"
         id="line107" />
      <line
         y2="56"
         style="fill:none;"
         x1="220.375"
         x2="230.28"
         y1="56"
         id="line109" />
      <line
         y2="623"
         style="fill:none;"
         x1="1212.625"
         x2="1202.72"
         y1="623"
         id="line111" />
      <line
         y2="481.25"
         style="fill:none;"
         x1="1212.625"
         x2="1202.72"
         y1="481.25"
         id="line113" />
      <line
         y2="339.5"
         style="fill:none;"
         x1="1212.625"
         x2="1202.72"
         y1="339.5"
         id="line115" />
      <line
         y2="197.75"
         style="fill:none;"
         x1="1212.625"
         x2="1202.72"
         y1="197.75"
         id="line117" />
      <line
         y2="56"
         style="fill:none;"
         x1="1212.625"
         x2="1202.72"
         y1="56"
         id="line119" />
    </g>
    <g
       transform="translate(207.0417,623)"
       style="font-size:33.3333px; fill:rgb(38,38,38); text-rendering:geometricPrecision; image-rendering:optimizeQuality; color-rendering:optimizeQuality; font-family:'SansSerif'; stroke:rgb(38,38,38); color-interpolation:linearRGB;"
       id="g121">
      <path
         style="stroke:none;"
         d="M-47.9531 5.9062 L-47.9531 3 L-39.0469 3 L-39.0469 5.9062 L-47.9531 5.9062 ZM-27.2348 13 L-27.2348 7.3438 L-37.4848 7.3438 L-37.4848 4.6875 L-26.7036 -10.625 L-24.3442 -10.625 L-24.3442 4.6875 L-21.1411 4.6875 L-21.1411 7.3438 L-24.3442 7.3438 L-24.3442 13 L-27.2348 13 ZM-27.2348 4.6875 L-27.2348 -5.9688 L-34.6411 4.6875 L-27.2348 4.6875 ZM-18.0049 1.3438 Q-18.0049 -2.8438 -17.1455 -5.3984 Q-16.2861 -7.9531 -14.583 -9.3359 Q-12.8799 -10.7188 -10.3017 -10.7188 Q-8.4111 -10.7188 -6.9736 -9.9531 Q-5.5361 -9.1875 -4.6064 -7.7422 Q-3.6767 -6.2969 -3.1377 -4.2266 Q-2.5986 -2.1562 -2.5986 1.3438 Q-2.5986 5.5 -3.458 8.0547 Q-4.3174 10.6094 -6.0127 12.0078 Q-7.708 13.4062 -10.3017 13.4062 Q-13.7236 13.4062 -15.6767 10.9531 Q-18.0049 8 -18.0049 1.3438 ZM-15.0361 1.3438 Q-15.0361 7.1719 -13.6689 9.0938 Q-12.3017 11.0156 -10.3017 11.0156 Q-8.3174 11.0156 -6.9502 9.0859 Q-5.583 7.1562 -5.583 1.3438 Q-5.583 -4.4844 -6.9502 -6.3984 Q-8.3174 -8.3125 -10.333 -8.3125 Q-12.333 -8.3125 -13.5361 -6.625 Q-15.0361 -4.4688 -15.0361 1.3438 Z"
         id="path123" />
    </g>
    <g
       transform="translate(207.0417,481.25)"
       style="font-size:33.3333px; fill:rgb(38,38,38); text-rendering:geometricPrecision; image-rendering:optimizeQuality; color-rendering:optimizeQuality; font-family:'SansSerif'; stroke:rgb(38,38,38); color-interpolation:linearRGB;"
       id="g125">
      <path
         style="stroke:none;"
         d="M-47.9531 5.9062 L-47.9531 3 L-39.0469 3 L-39.0469 5.9062 L-47.9531 5.9062 ZM-21.2973 10.2188 L-21.2973 13 L-36.9067 13 Q-36.9379 11.9531 -36.5629 10.9844 Q-35.9692 9.3906 -34.6567 7.8438 Q-33.3442 6.2969 -30.8598 4.2656 Q-27.0161 1.1094 -25.6645 -0.7344 Q-24.3129 -2.5781 -24.3129 -4.2188 Q-24.3129 -5.9531 -25.5395 -7.1328 Q-26.7661 -8.3125 -28.7504 -8.3125 Q-30.8442 -8.3125 -32.102 -7.0547 Q-33.3598 -5.7969 -33.3754 -3.5781 L-36.3598 -3.8906 Q-36.0473 -7.2188 -34.0551 -8.9688 Q-32.0629 -10.7188 -28.6879 -10.7188 Q-25.2973 -10.7188 -23.3129 -8.8359 Q-21.3286 -6.9531 -21.3286 -4.1562 Q-21.3286 -2.75 -21.9067 -1.375 Q-22.4848 0 -23.8286 1.5156 Q-25.1723 3.0312 -28.2973 5.6719 Q-30.9067 7.8594 -31.6489 8.6406 Q-32.3911 9.4219 -32.8754 10.2188 L-21.2973 10.2188 ZM-18.0049 1.3438 Q-18.0049 -2.8438 -17.1455 -5.3984 Q-16.2861 -7.9531 -14.583 -9.3359 Q-12.8799 -10.7188 -10.3017 -10.7188 Q-8.4111 -10.7188 -6.9736 -9.9531 Q-5.5361 -9.1875 -4.6064 -7.7422 Q-3.6767 -6.2969 -3.1377 -4.2266 Q-2.5986 -2.1562 -2.5986 1.3438 Q-2.5986 5.5 -3.458 8.0547 Q-4.3174 10.6094 -6.0127 12.0078 Q-7.708 13.4062 -10.3017 13.4062 Q-13.7236 13.4062 -15.6767 10.9531 Q-18.0049 8 -18.0049 1.3438 ZM-15.0361 1.3438 Q-15.0361 7.1719 -13.6689 9.0938 Q-12.3017 11.0156 -10.3017 11.0156 Q-8.3174 11.0156 -6.9502 9.0859 Q-5.583 7.1562 -5.583 1.3438 Q-5.583 -4.4844 -6.9502 -6.3984 Q-8.3174 -8.3125 -10.333 -8.3125 Q-12.333 -8.3125 -13.5361 -6.625 Q-15.0361 -4.4688 -15.0361 1.3438 Z"
         id="path127" />
    </g>
    <g
       transform="translate(207.0417,339.5)"
       style="font-size:33.3333px; fill:rgb(38,38,38); text-rendering:geometricPrecision; image-rendering:optimizeQuality; color-rendering:optimizeQuality; font-family:'SansSerif'; stroke:rgb(38,38,38); color-interpolation:linearRGB;"
       id="g129">
      <path
         style="stroke:none;"
         d="M-17.625 1.3438 Q-17.625 -2.8438 -16.7656 -5.3984 Q-15.9062 -7.9531 -14.2031 -9.3359 Q-12.5 -10.7188 -9.9219 -10.7188 Q-8.0312 -10.7188 -6.5938 -9.9531 Q-5.1562 -9.1875 -4.2266 -7.7422 Q-3.2969 -6.2969 -2.7578 -4.2266 Q-2.2188 -2.1562 -2.2188 1.3438 Q-2.2188 5.5 -3.0781 8.0547 Q-3.9375 10.6094 -5.6328 12.0078 Q-7.3281 13.4062 -9.9219 13.4062 Q-13.3438 13.4062 -15.2969 10.9531 Q-17.625 8 -17.625 1.3438 ZM-14.6562 1.3438 Q-14.6562 7.1719 -13.2891 9.0938 Q-11.9219 11.0156 -9.9219 11.0156 Q-7.9375 11.0156 -6.5703 9.0859 Q-5.2031 7.1562 -5.2031 1.3438 Q-5.2031 -4.4844 -6.5703 -6.3984 Q-7.9375 -8.3125 -9.9531 -8.3125 Q-11.9531 -8.3125 -13.1562 -6.625 Q-14.6562 -4.4688 -14.6562 1.3438 Z"
         id="path131" />
    </g>
    <g
       transform="translate(207.0417,197.75)"
       style="font-size:33.3333px; fill:rgb(38,38,38); text-rendering:geometricPrecision; image-rendering:optimizeQuality; color-rendering:optimizeQuality; font-family:'SansSerif'; stroke:rgb(38,38,38); color-interpolation:linearRGB;"
       id="g133">
      <path
         style="stroke:none;"
         d="M-21.3906 10.2188 L-21.3906 13 L-37 13 Q-37.0312 11.9531 -36.6562 10.9844 Q-36.0625 9.3906 -34.75 7.8438 Q-33.4375 6.2969 -30.9531 4.2656 Q-27.1094 1.1094 -25.7578 -0.7344 Q-24.4062 -2.5781 -24.4062 -4.2188 Q-24.4062 -5.9531 -25.6328 -7.1328 Q-26.8594 -8.3125 -28.8438 -8.3125 Q-30.9375 -8.3125 -32.1953 -7.0547 Q-33.4531 -5.7969 -33.4688 -3.5781 L-36.4531 -3.8906 Q-36.1406 -7.2188 -34.1484 -8.9688 Q-32.1562 -10.7188 -28.7812 -10.7188 Q-25.3906 -10.7188 -23.4062 -8.8359 Q-21.4219 -6.9531 -21.4219 -4.1562 Q-21.4219 -2.75 -22 -1.375 Q-22.5781 0 -23.9219 1.5156 Q-25.2656 3.0312 -28.3906 5.6719 Q-31 7.8594 -31.7422 8.6406 Q-32.4844 9.4219 -32.9688 10.2188 L-21.3906 10.2188 ZM-18.0982 1.3438 Q-18.0982 -2.8438 -17.2388 -5.3984 Q-16.3794 -7.9531 -14.6763 -9.3359 Q-12.9732 -10.7188 -10.3951 -10.7188 Q-8.5044 -10.7188 -7.0669 -9.9531 Q-5.6294 -9.1875 -4.6997 -7.7422 Q-3.7701 -6.2969 -3.231 -4.2266 Q-2.6919 -2.1562 -2.6919 1.3438 Q-2.6919 5.5 -3.5513 8.0547 Q-4.4107 10.6094 -6.106 12.0078 Q-7.8013 13.4062 -10.3951 13.4062 Q-13.8169 13.4062 -15.7701 10.9531 Q-18.0982 8 -18.0982 1.3438 ZM-15.1294 1.3438 Q-15.1294 7.1719 -13.7622 9.0938 Q-12.3951 11.0156 -10.3951 11.0156 Q-8.4107 11.0156 -7.0435 9.0859 Q-5.6763 7.1562 -5.6763 1.3438 Q-5.6763 -4.4844 -7.0435 -6.3984 Q-8.4107 -8.3125 -10.4263 -8.3125 Q-12.4263 -8.3125 -13.6294 -6.625 Q-15.1294 -4.4688 -15.1294 1.3438 Z"
         id="path135" />
    </g>
    <g
       transform="translate(207.0417,56)"
       style="font-size:33.3333px; fill:rgb(38,38,38); text-rendering:geometricPrecision; image-rendering:optimizeQuality; color-rendering:optimizeQuality; font-family:'SansSerif'; stroke:rgb(38,38,38); color-interpolation:linearRGB;"
       id="g137">
      <path
         style="stroke:none;"
         d="M-27.3281 13 L-27.3281 7.3438 L-37.5781 7.3438 L-37.5781 4.6875 L-26.7969 -10.625 L-24.4375 -10.625 L-24.4375 4.6875 L-21.2344 4.6875 L-21.2344 7.3438 L-24.4375 7.3438 L-24.4375 13 L-27.3281 13 ZM-27.3281 4.6875 L-27.3281 -5.9688 L-34.7344 4.6875 L-27.3281 4.6875 ZM-18.0982 1.3438 Q-18.0982 -2.8438 -17.2388 -5.3984 Q-16.3794 -7.9531 -14.6763 -9.3359 Q-12.9732 -10.7188 -10.3951 -10.7188 Q-8.5044 -10.7188 -7.0669 -9.9531 Q-5.6294 -9.1875 -4.6997 -7.7422 Q-3.7701 -6.2969 -3.231 -4.2266 Q-2.6919 -2.1562 -2.6919 1.3438 Q-2.6919 5.5 -3.5513 8.0547 Q-4.4107 10.6094 -6.106 12.0078 Q-7.8013 13.4062 -10.3951 13.4062 Q-13.8169 13.4062 -15.7701 10.9531 Q-18.0982 8 -18.0982 1.3438 ZM-15.1294 1.3438 Q-15.1294 7.1719 -13.7622 9.0938 Q-12.3951 11.0156 -10.3951 11.0156 Q-8.4107 11.0156 -7.0435 9.0859 Q-5.6763 7.1562 -5.6763 1.3438 Q-5.6763 -4.4844 -7.0435 -6.3984 Q-8.4107 -8.3125 -10.4263 -8.3125 Q-12.4263 -8.3125 -13.6294 -6.625 Q-15.1294 -4.4688 -15.1294 1.3438 Z"
         id="path139" />
    </g>
    <g
       transform="translate(148.9167,339.4997) rotate(-90)"
       style="font-size:50px; fill:rgb(38,38,38); text-rendering:geometricPrecision; image-rendering:optimizeQuality; color-rendering:optimizeQuality; font-family:'mwa_cmmi10'; stroke:rgb(38,38,38); color-interpolation:linearRGB;"
       id="g141">
      <path
         style="stroke:none;"
         d="M-8.9509 -10.8439 Q-7.904 -9.0471 -5.2946 -9.0471 Q-2.9196 -9.0471 -1.1852 -10.7033 Q0.5491 -12.3596 1.6116 -14.7189 Q2.6741 -17.0783 3.2523 -19.5314 Q1.0335 -17.4377 -1.5602 -17.4377 Q-3.529 -17.4377 -4.9196 -18.1252 Q-6.3102 -18.8127 -7.0837 -20.1642 Q-7.8571 -21.5158 -7.8571 -23.4377 Q-7.8571 -25.0783 -7.4196 -26.7971 Q-6.9821 -28.5158 -6.1852 -30.633 Q-5.3884 -32.7502 -4.8102 -34.3127 Q-4.1384 -36.1408 -4.1384 -37.3127 Q-4.1384 -38.7971 -5.2477 -38.7971 Q-7.2165 -38.7971 -8.4977 -36.758 Q-9.779 -34.7189 -10.3884 -32.2033 Q-10.4977 -31.8908 -10.8102 -31.8908 L-11.3884 -31.8908 Q-11.8102 -31.8908 -11.8102 -32.3596 L-11.8102 -32.5002 Q-10.9977 -35.4846 -9.3415 -37.7892 Q-7.6852 -40.0939 -5.1384 -40.0939 Q-3.3571 -40.0939 -2.1306 -38.9221 Q-0.904 -37.7502 -0.904 -35.9377 Q-0.904 -35.0158 -1.3102 -33.9846 Q-1.529 -33.3752 -2.3102 -31.3283 Q-3.0915 -29.2814 -3.5056 -27.9377 Q-3.9196 -26.5939 -4.1931 -25.2971 Q-4.4665 -24.0002 -4.4665 -22.7189 Q-4.4665 -21.0471 -3.7556 -19.8986 Q-3.0446 -18.7502 -1.5134 -18.7502 Q1.596 -18.7502 4.0648 -22.5471 L7.846 -37.9533 Q8.0179 -38.6096 8.6273 -39.0861 Q9.2366 -39.5627 9.9398 -39.5627 Q10.5491 -39.5627 11.0023 -39.1721 Q11.4554 -38.7814 11.4554 -38.1408 Q11.4554 -37.8439 11.4085 -37.7502 L6.4554 -17.8596 Q5.7991 -15.2971 4.0413 -12.9533 Q2.2835 -10.6096 -0.2009 -9.1799 Q-2.6852 -7.7502 -5.3727 -7.7502 Q-6.654 -7.7502 -7.9274 -8.2502 Q-9.2009 -8.7502 -9.9821 -9.7502 Q-10.7634 -10.7502 -10.7634 -12.0939 Q-10.7634 -13.4533 -9.9587 -14.4533 Q-9.154 -15.4533 -7.8102 -15.4533 Q-6.9977 -15.4533 -6.4509 -14.9533 Q-5.904 -14.4533 -5.904 -13.6564 Q-5.904 -12.5002 -6.7556 -11.6486 Q-7.6071 -10.7971 -8.7634 -10.7971 Q-8.8102 -10.8283 -8.8571 -10.8361 Q-8.904 -10.8439 -8.9509 -10.8439 Z"
         id="path143" />
    </g>
    <g
       style="fill:rgb(179,179,179); text-rendering:optimizeSpeed; color-rendering:optimizeSpeed; image-rendering:optimizeSpeed; shape-rendering:crispEdges; stroke:rgb(179,179,179); color-interpolation:sRGB;"
       id="g145">
      <path
         style="stroke:none;"
         d="M391.879 328.9389 L220.3691 325.5338 L220.3691 326.653 L220.3691 351.8716 L390.8754 357.7914 L562.5737 355.4901 L617.2183 355.5121 L612.2471 318.6089 L562.1066 321.2972 Z"
         id="path147" />
    </g>
    <g
       style="stroke-linecap:butt; text-rendering:geometricPrecision; color-rendering:optimizeQuality; image-rendering:optimizeQuality; stroke-linejoin:round; color-interpolation:linearRGB; stroke-width:1.6667;"
       id="g149">
      <path
         d="M220.3691 325.5338 L391.879 328.9389 L562.1066 321.2972 L612.2471 318.6089 L617.2183 355.5121 L562.5737 355.4901 L390.8754 357.7914 L220.3691 351.8716"
         style="fill:none; fill-rule:evenodd;"
         id="path151" />
    </g>
    <g
       style="fill:rgb(179,179,179); text-rendering:optimizeSpeed; color-rendering:optimizeSpeed; image-rendering:optimizeSpeed; shape-rendering:crispEdges; stroke:rgb(179,179,179); color-interpolation:sRGB;"
       id="g153">
      <path
         style="stroke:none;"
         d="M220.3691 325.5312 L393.052 328.8865 L558.5692 321.4559 L562.1066 321.2972 L612.2471 318.6089 L615.9171 283.9149 L558.7209 290.1263 L557.1702 290.2943 L391.772 300.3749 L220.3691 300.0572 L220.3691 324.5483 Z"
         id="path155" />
    </g>
    <g
       style="stroke-linecap:butt; text-rendering:geometricPrecision; color-rendering:optimizeQuality; image-rendering:optimizeQuality; stroke-linejoin:round; color-interpolation:linearRGB; stroke-width:1.6667;"
       id="g157">
      <path
         d="M220.3691 300.0572 L391.772 300.3749 L557.1702 290.2943 L558.7209 290.1263 L615.9171 283.9149 L612.2471 318.6089 L562.1066 321.2972 L558.5692 321.4559 L393.052 328.8865 L220.3691 325.5312"
         style="fill:none; fill-rule:evenodd;"
         id="path159" />
    </g>
    <g
       style="fill:rgb(179,179,179); text-rendering:optimizeSpeed; color-rendering:optimizeSpeed; image-rendering:optimizeSpeed; shape-rendering:crispEdges; stroke:rgb(179,179,179); color-interpolation:sRGB;"
       id="g161">
      <path
         style="stroke:none;"
         d="M700.5912 623.0034 L701.4164 598.108 L705.5463 501.1198 L709.6414 403.3442 L684.8231 402.279 L681.2135 500.2232 L676.5967 597.0541 L675.7367 623.0034 L692.9786 623.0034 Z"
         id="path163" />
    </g>
    <g
       style="stroke-linecap:butt; text-rendering:geometricPrecision; color-rendering:optimizeQuality; image-rendering:optimizeQuality; stroke-linejoin:round; color-interpolation:linearRGB; stroke-width:1.6667;"
       id="g165">
      <path
         d="M675.7367 623.0034 L676.5967 597.0541 L681.2135 500.2232 L684.8231 402.279 L709.6414 403.3442 L705.5463 501.1198 L701.4164 598.108 L700.5912 623.0034"
         style="fill:none; fill-rule:evenodd;"
         id="path167" />
    </g>
    <g
       style="fill:rgb(179,179,179); text-rendering:optimizeSpeed; color-rendering:optimizeSpeed; image-rendering:optimizeSpeed; shape-rendering:crispEdges; stroke:rgb(179,179,179); color-interpolation:sRGB;"
       id="g169">
      <path
         style="stroke:none;"
         d="M728.8018 502.679 L735.0154 407.4613 L709.6414 403.3442 L705.5214 501.6875 L701.4086 598.3397 L700.5911 623.0034 L718.1407 623.0034 L725.4453 623.0034 L726.2354 599.1626 Z"
         id="path171" />
    </g>
    <g
       style="stroke-linecap:butt; text-rendering:geometricPrecision; color-rendering:optimizeQuality; image-rendering:optimizeQuality; stroke-linejoin:round; color-interpolation:linearRGB; stroke-width:1.6667;"
       id="g173">
      <path
         d="M700.5911 623.0034 L701.4086 598.3397 L705.5214 501.6875 L709.6414 403.3442 L735.0154 407.4613 L728.8018 502.679 L726.2354 599.1626 L725.4453 623.0034"
         style="fill:none; fill-rule:evenodd;"
         id="path175" />
    </g>
    <g
       style="fill:rgb(179,179,179); text-rendering:optimizeSpeed; color-rendering:optimizeSpeed; image-rendering:optimizeSpeed; shape-rendering:crispEdges; stroke:rgb(179,179,179); color-interpolation:sRGB;"
       id="g177">
      <path
         style="stroke:none;"
         d="M900.9827 302.0539 L893.6996 301.3685 L803.7266 292.1555 L797.0785 325.7602 L892.1843 330.6775 L898.2589 330.9915 L1027.9956 342.5819 L1029.7235 342.8073 L1211.0658 366.4573 L1212.631 366.6599 L1212.631 354.3645 L1212.631 338.0437 L1212.631 337.7142 L1033.4126 314.5187 L1030.6613 314.2593 Z"
         id="path179" />
    </g>
    <g
       style="stroke-linecap:butt; text-rendering:geometricPrecision; color-rendering:optimizeQuality; image-rendering:optimizeQuality; stroke-linejoin:round; color-interpolation:linearRGB; stroke-width:1.6667;"
       id="g181">
      <path
         d="M1212.631 366.6599 L1211.0658 366.4573 L1029.7235 342.8073 L1027.9956 342.5819 L898.2589 330.9915 L892.1843 330.6775 L797.0785 325.7602 L803.7266 292.1555 L893.6996 301.3685 L900.9827 302.0539 L1030.6613 314.2593 L1033.4126 314.5187 L1212.631 337.7142"
         style="fill:none; fill-rule:evenodd;"
         id="path183" />
    </g>
    <g
       style="fill:rgb(179,179,179); text-rendering:optimizeSpeed; color-rendering:optimizeSpeed; image-rendering:optimizeSpeed; shape-rendering:crispEdges; stroke:rgb(179,179,179); color-interpolation:sRGB;"
       id="g185">
      <path
         style="stroke:none;"
         d="M1033.4126 314.5187 L1212.631 337.7169 L1212.631 337.2438 L1212.631 311.1053 L1037.0017 287.6471 L897.4779 272.5841 L809.4114 261.938 L803.7266 292.1555 L894.7592 301.4685 Z"
         id="path187" />
    </g>
    <g
       style="stroke-linecap:butt; text-rendering:geometricPrecision; color-rendering:optimizeQuality; image-rendering:optimizeQuality; stroke-linejoin:round; color-interpolation:linearRGB; stroke-width:1.6667;"
       id="g189">
      <path
         d="M1212.631 337.7169 L1033.4126 314.5187 L894.7592 301.4685 L803.7266 292.1555 L809.4114 261.938 L897.4779 272.5841 L1037.0017 287.6471 L1212.631 311.1053"
         style="fill:none; fill-rule:evenodd;"
         id="path191" />
    </g>
    <g
       style="fill:rgb(179,179,179); text-rendering:optimizeSpeed; color-rendering:optimizeSpeed; image-rendering:optimizeSpeed; shape-rendering:crispEdges; stroke:rgb(179,179,179); color-interpolation:sRGB;"
       id="g193">
      <path
         style="stroke:none;"
         d="M698.6031 55.9966 L696.9265 55.9966 L702.7404 202.7821 L726.9789 199.4063 L719.4926 55.9966 Z"
         id="path195" />
    </g>
    <g
       style="stroke-linecap:butt; text-rendering:geometricPrecision; color-rendering:optimizeQuality; image-rendering:optimizeQuality; stroke-linejoin:round; color-interpolation:linearRGB; stroke-width:1.6667;"
       id="g197">
      <path
         d="M719.4926 55.9966 L726.9789 199.4063 L702.7404 202.7821 L696.9265 55.9966"
         style="fill:none; fill-rule:evenodd;"
         id="path199" />
    </g>
    <g
       style="fill:rgb(179,179,179); text-rendering:optimizeSpeed; color-rendering:optimizeSpeed; image-rendering:optimizeSpeed; shape-rendering:crispEdges; stroke:rgb(179,179,179); color-interpolation:sRGB;"
       id="g201">
      <path
         style="stroke:none;"
         d="M702.7404 202.7821 L696.9314 55.9966 L695.1679 55.9966 L673.7083 55.9966 L681.3219 202.1024 Z"
         id="path203" />
    </g>
    <g
       style="stroke-linecap:butt; text-rendering:geometricPrecision; color-rendering:optimizeQuality; image-rendering:optimizeQuality; stroke-linejoin:round; color-interpolation:linearRGB; stroke-width:1.6667;"
       id="g205">
      <path
         d="M696.9314 55.9966 L702.7404 202.7821 L681.3219 202.1024 L673.7083 55.9966"
         style="fill:none; fill-rule:evenodd;"
         id="path207" />
    </g>
    <g
       style="fill:rgb(179,179,179); text-rendering:optimizeSpeed; color-rendering:optimizeSpeed; image-rendering:optimizeSpeed; shape-rendering:crispEdges; stroke:rgb(179,179,179); color-interpolation:sRGB;"
       id="g209">
      <path
         style="stroke:none;"
         d="M710.8824 382.3177 L710.1971 389.7433 L709.6414 403.3442 L735.0154 407.4613 L736.6965 392.7774 L737.6115 384.7841 L737.8291 383.4879 L738.9653 376.7243 L740.4763 371.4235 L741.1177 369.1732 L744.2355 359.8766 L746.3299 356.2159 L748.157 353.0222 L750.4718 348.9703 L752.2756 345.8139 L753.5364 344.4452 L758.8344 338.6924 L766.6072 333.7001 L770.6393 332.1892 L774.6111 330.7009 L786.1822 328.1565 L797.0785 325.7602 L803.7266 292.1555 L778.9962 295.476 L765.4945 299.4095 L759.0583 301.2842 L749.1698 307.9918 L741.5267 313.1756 L738.8986 314.9588 L729.8762 322.6559 L726.6819 327.0012 L722.3464 332.9004 L718.8793 340.51 L718.1472 342.623 L715.7891 349.4282 L714.9174 353.3391 L712.6529 363.4926 L712.373 366.4587 L711.6472 374.1437 L711.1872 379.0135 Z"
         id="path211" />
    </g>
    <g
       style="stroke-linecap:butt; text-rendering:geometricPrecision; color-rendering:optimizeQuality; image-rendering:optimizeQuality; stroke-linejoin:round; color-interpolation:linearRGB; stroke-width:1.6667;"
       id="g213">
      <path
         d="M709.6414 403.3442 L710.1971 389.7433 L710.8824 382.3177 L711.1872 379.0135 L711.6472 374.1437 L712.373 366.4587 L712.6529 363.4926 L714.9174 353.3391 L715.7891 349.4282 L718.1472 342.623 L718.8793 340.51 L722.3464 332.9004 L726.6819 327.0012 L729.8762 322.6559 L738.8986 314.9588 L741.5267 313.1756 L749.1698 307.9918 L759.0583 301.2842 L765.4945 299.4095 L778.9962 295.476 L803.7266 292.1555 L797.0785 325.7602 L786.1822 328.1565 L774.6111 330.7009 L770.6393 332.1892 L766.6072 333.7001 L758.8344 338.6924 L753.5364 344.4452 L752.2756 345.8139 L750.4718 348.9703 L748.157 353.0222 L746.3299 356.2159 L744.2355 359.8766 L741.1177 369.1732 L740.4763 371.4235 L738.9653 376.7243 L737.8291 383.4879 L737.6115 384.7841 L736.6965 392.7774 L735.0154 407.4613 Z"
         style="fill:none; fill-rule:evenodd;"
         id="path215" />
    </g>
    <g
       style="fill:rgb(179,179,179); text-rendering:optimizeSpeed; color-rendering:optimizeSpeed; image-rendering:optimizeSpeed; shape-rendering:crispEdges; stroke:rgb(179,179,179); color-interpolation:sRGB;"
       id="g217">
      <path
         style="stroke:none;"
         d="M765.3655 293.8763 L774.385 293.4716 L788.6245 292.8331 L803.7266 292.1555 L809.4114 261.938 L787.1376 259.6848 L772.8371 258.9754 L765.2804 256.5167 L757.4955 253.4563 L750.177 248.3051 L743.7153 242.0731 L741.8768 240.1588 L738.6031 236.7511 L734.3237 228.8904 L726.9789 199.4063 L702.7404 202.7821 L706.158 232.1655 L707.2607 241.6457 L709.09 246.9429 L711.2765 253.2749 L715.4985 265.5008 L722.4783 273.251 L725.9824 277.1421 L736.5052 284.3026 L741.0738 287.4111 L753.1445 291.6686 L758.7472 292.6807 Z"
         id="path219" />
    </g>
    <g
       style="stroke-linecap:butt; text-rendering:geometricPrecision; color-rendering:optimizeQuality; image-rendering:optimizeQuality; stroke-linejoin:round; color-interpolation:linearRGB; stroke-width:1.6667;"
       id="g221">
      <path
         d="M803.7266 292.1555 L788.6245 292.8331 L774.385 293.4716 L765.3655 293.8763 L758.7472 292.6807 L753.1445 291.6686 L741.0738 287.4111 L736.5052 284.3026 L725.9824 277.1421 L722.4783 273.251 L715.4985 265.5008 L711.2765 253.2749 L709.09 246.9429 L707.2607 241.6457 L706.158 232.1655 L702.7404 202.7821 L726.9789 199.4063 L734.3237 228.8904 L738.6031 236.7511 L741.8768 240.1588 L743.7153 242.0731 L750.177 248.3051 L757.4955 253.4563 L765.2804 256.5167 L772.8371 258.9754 L787.1376 259.6848 L809.4114 261.938 Z"
         style="fill:none; fill-rule:evenodd;"
         id="path223" />
    </g>
    <g
       style="fill:rgb(179,179,179); text-rendering:optimizeSpeed; color-rendering:optimizeSpeed; image-rendering:optimizeSpeed; shape-rendering:crispEdges; stroke:rgb(179,179,179); color-interpolation:sRGB;"
       id="g225">
      <path
         style="stroke:none;"
         d="M699.3326 258.7273 L700.6113 253.7058 L702.4306 246.5637 L704.1933 233.6099 L703.6865 222.8646 L702.7404 202.7821 L681.3219 202.1024 L676.7207 224.1346 L667.8882 245.3709 L657.6142 259.8812 L647.6548 268.5966 L647.1077 269.0751 L645.6087 269.8497 L635.4885 275.0831 L630.603 277.6098 L621.755 281.4087 L615.9171 283.9149 L612.2471 318.6089 L636.1178 314.8646 L637.4935 314.6087 L654.3086 311.4774 L664.4529 306.2901 L674.2918 299.0382 L678.6464 293.3894 L681.3907 289.8301 L686.7368 281.6759 L688.0734 279.6113 L693.6953 270.9327 Z"
         id="path227" />
    </g>
    <g
       style="stroke-linecap:butt; text-rendering:geometricPrecision; color-rendering:optimizeQuality; image-rendering:optimizeQuality; stroke-linejoin:round; color-interpolation:linearRGB; stroke-width:1.6667;"
       id="g229">
      <path
         d="M702.7404 202.7821 L703.6865 222.8646 L704.1933 233.6099 L702.4306 246.5637 L700.6113 253.7058 L699.3326 258.7273 L693.6953 270.9327 L688.0734 279.6113 L686.7368 281.6759 L681.3907 289.8301 L678.6464 293.3894 L674.2918 299.0382 L664.4529 306.2901 L654.3086 311.4774 L637.4935 314.6087 L636.1178 314.8646 L612.2471 318.6089 L615.9171 283.9149 L621.755 281.4087 L630.603 277.6098 L635.4885 275.0831 L645.6087 269.8497 L647.1077 269.0751 L647.6548 268.5966 L657.6142 259.8812 L667.8882 245.3709 L676.7207 224.1346 L681.3219 202.1024 Z"
         style="fill:none; fill-rule:evenodd;"
         id="path231" />
    </g>
    <g
       style="fill:rgb(179,179,179); text-rendering:optimizeSpeed; color-rendering:optimizeSpeed; image-rendering:optimizeSpeed; shape-rendering:crispEdges; stroke:rgb(179,179,179); color-interpolation:sRGB;"
       id="g233">
      <path
         style="stroke:none;"
         d="M669.0485 321.1505 L657.5696 319.1582 L644.9191 316.9632 L632.7789 317.5748 L612.2471 318.6089 L617.2183 355.5121 L634.6542 354.7934 L642.892 355.23 L651.2341 355.6715 L658.4931 356.6858 L666.0037 359.873 L668.3312 361.5223 L671.4916 363.7619 L674.9836 368.1413 L676.5236 370.8388 L678.5429 374.3741 L681.312 380.8485 L681.3992 381.0526 L683.2072 388.0402 L684.8231 402.279 L709.6414 403.3442 L709.7271 374.4663 L709.7272 374.4669 L709.7442 368.6899 L709.7271 374.4663 L705.3563 354.371 L701.0776 348.6443 L697.7266 344.1593 L693.8958 339.0325 L688.9551 332.4196 L676.2898 325.2499 Z"
         id="path235" />
    </g>
    <g
       style="stroke-linecap:butt; text-rendering:geometricPrecision; color-rendering:optimizeQuality; image-rendering:optimizeQuality; stroke-linejoin:round; color-interpolation:linearRGB; stroke-width:1.6667;"
       id="g237">
      <path
         d="M612.2471 318.6089 L632.7789 317.5748 L644.9191 316.9632 L657.5696 319.1582 L669.0485 321.1505 L676.2898 325.2499 L688.9551 332.4196 L693.8958 339.0325 L697.7266 344.1593 L701.0776 348.6443 L705.3563 354.371 L709.7271 374.4663 L709.6414 403.3442 L684.8231 402.279 L683.2072 388.0402 L681.3992 381.0526 L681.312 380.8485 L678.5429 374.3741 L676.5236 370.8388 L674.9836 368.1413 L671.4916 363.7619 L668.3312 361.5223 L666.0037 359.873 L658.4931 356.6858 L651.2341 355.6715 L642.892 355.23 L634.6542 354.7934 L617.2183 355.5121 Z"
         style="fill:none; fill-rule:evenodd;"
         id="path239" />
      <path
         d="M709.7272 374.4669 L709.7271 374.4663 L709.7442 368.6899 Z"
         style="fill:none; fill-rule:evenodd;"
         id="path241" />
    </g>
    <g
       style="fill:rgb(179,179,179); text-rendering:optimizeSpeed; color-rendering:optimizeSpeed; image-rendering:optimizeSpeed; shape-rendering:crispEdges; stroke:rgb(179,179,179); color-interpolation:sRGB;"
       id="g243">
      <path
         style="stroke:none;"
         d="M709.6896 387.1755 L709.6414 403.3442 L735.0154 407.4613 L735.7504 387.2527 L736.1458 369.2703 L736.2153 366.1058 L734.4264 354.3256 L732.887 347.8377 L731.9026 343.6899 L728.3397 332.6812 L722.6633 322.2349 L715.6141 312.89 L712.4389 309.6198 L706.0629 303.0525 L695.2496 292.8636 L693.7123 291.5807 L689.7518 288.2779 L681.2014 283.7072 L669.8961 279.8679 L663.4784 278.6347 L654.7084 278.1506 L641.5447 279.3314 L636.334 279.7984 L615.9171 283.9149 L612.2471 318.6089 L638.2235 317.3005 L644.9191 316.9632 L647.8845 317.4777 L656.4795 318.9689 L669.0485 321.1505 L670.634 322.0477 L676.7632 325.5171 L688.9551 332.4196 L689.1423 332.6698 L696.1483 342.0465 L705.3563 354.371 L709.7442 368.6899 Z"
         id="path245" />
    </g>
    <g
       style="stroke-linecap:butt; text-rendering:geometricPrecision; color-rendering:optimizeQuality; image-rendering:optimizeQuality; stroke-linejoin:round; color-interpolation:linearRGB; stroke-width:1.6667;"
       id="g247">
      <path
         d="M709.6414 403.3442 L709.6896 387.1755 L709.7442 368.6899 L705.3563 354.371 L696.1483 342.0465 L689.1423 332.6698 L688.9551 332.4196 L676.7632 325.5171 L670.634 322.0477 L669.0485 321.1505 L656.4795 318.9689 L647.8845 317.4777 L644.9191 316.9632 L638.2235 317.3005 L612.2471 318.6089 L615.9171 283.9149 L636.334 279.7984 L641.5447 279.3314 L654.7084 278.1506 L663.4784 278.6347 L669.8961 279.8679 L681.2014 283.7072 L689.7518 288.2779 L693.7123 291.5807 L695.2496 292.8636 L706.0629 303.0525 L712.4389 309.6198 L715.6141 312.89 L722.6633 322.2349 L728.3397 332.6812 L731.9026 343.6899 L732.887 347.8377 L734.4264 354.3256 L736.2153 366.1058 L736.1458 369.2703 L735.7504 387.2527 L735.0154 407.4613 Z"
         style="fill:none; fill-rule:evenodd;"
         id="path249" />
    </g>
    <g
       style="fill:rgb(179,179,179); text-rendering:optimizeSpeed; color-rendering:optimizeSpeed; image-rendering:optimizeSpeed; shape-rendering:crispEdges; stroke:rgb(179,179,179); color-interpolation:sRGB;"
       id="g251">
      <path
         style="stroke:none;"
         d="M763.2676 300.0581 L778.9962 295.476 L803.7266 292.1555 L809.4114 261.938 L779.96 261.1122 L770.1843 260.838 L753.5995 266.8737 L743.4205 272.3807 L739.7803 274.3503 L729.6417 282.1082 L722.2834 289.4304 L716.3675 296.7517 L709.0404 305.8188 L704.0508 311.9941 L700.1137 317.7853 L695.4792 324.6006 L693.5039 327.5072 L690.1954 335.3856 L688.5433 340.336 L687.262 344.1756 L685.5567 360.6952 L684.2972 379.6379 L684.1689 374.1352 L684.8231 402.279 L709.6414 403.3442 L710.1971 389.7433 L711.1872 379.0135 L711.4048 376.7072 L712.6529 363.4926 L715.5538 350.4842 L715.7891 349.4282 L717.3902 344.8091 L718.8793 340.51 L719.4236 339.3151 L722.3464 332.9004 L725.9052 328.0587 L729.8762 322.6559 L738.8986 314.9588 L739.3784 314.6328 L747.819 308.9075 L758.3673 301.7534 L759.0583 301.2842 Z"
         id="path253" />
    </g>
    <g
       style="stroke-linecap:butt; text-rendering:geometricPrecision; color-rendering:optimizeQuality; image-rendering:optimizeQuality; stroke-linejoin:round; color-interpolation:linearRGB; stroke-width:1.6667;"
       id="g255">
      <path
         d="M803.7266 292.1555 L778.9962 295.476 L763.2676 300.0581 L759.0583 301.2842 L758.3673 301.7534 L747.819 308.9075 L739.3784 314.6328 L738.8986 314.9588 L729.8762 322.6559 L725.9052 328.0587 L722.3464 332.9004 L719.4236 339.3151 L718.8793 340.51 L717.3902 344.8091 L715.7891 349.4282 L715.5538 350.4842 L712.6529 363.4926 L711.4048 376.7072 L711.1872 379.0135 L710.1971 389.7433 L709.6414 403.3442 L684.8231 402.279 L684.1689 374.1352 L684.2972 379.6379 L685.5567 360.6952 L687.262 344.1756 L688.5433 340.336 L690.1954 335.3856 L693.5039 327.5072 L695.4792 324.6006 L700.1137 317.7853 L704.0508 311.9941 L709.0404 305.8188 L716.3675 296.7517 L722.2834 289.4304 L729.6417 282.1082 L739.7803 274.3503 L743.4205 272.3807 L753.5995 266.8737 L770.1843 260.838 L779.96 261.1122 L809.4114 261.938 Z"
         style="fill:none; fill-rule:evenodd;"
         id="path257" />
    </g>
    <g
       style="fill:rgb(179,179,179); text-rendering:optimizeSpeed; color-rendering:optimizeSpeed; image-rendering:optimizeSpeed; shape-rendering:crispEdges; stroke:rgb(179,179,179); color-interpolation:sRGB;"
       id="g259">
      <path
         style="stroke:none;"
         d="M756.1227 327.1713 L763.4285 327.5909 L797.0785 325.7602 L803.7266 292.1555 L765.3655 293.8763 L762.2399 293.3115 L753.1445 291.6686 L741.0738 287.4111 L730.1888 280.004 L725.9824 277.1421 L723.5925 274.4878 L714.8571 263.6432 L707.2607 241.6457 L702.7404 202.7821 L681.3219 202.1024 L683.4283 242.8768 L686.3179 269.2799 L699.5353 296.1543 L703.8439 300.2771 L711.4445 307.5503 L724.4274 316.2466 L743.212 323.3093 Z"
         id="path261" />
    </g>
    <g
       style="stroke-linecap:butt; text-rendering:geometricPrecision; color-rendering:optimizeQuality; image-rendering:optimizeQuality; stroke-linejoin:round; color-interpolation:linearRGB; stroke-width:1.6667;"
       id="g263">
      <path
         d="M702.7404 202.7821 L707.2607 241.6457 L714.8571 263.6432 L723.5925 274.4878 L725.9824 277.1421 L730.1888 280.004 L741.0738 287.4111 L753.1445 291.6686 L762.2399 293.3115 L765.3655 293.8763 L803.7266 292.1555 L797.0785 325.7602 L763.4285 327.5909 L756.1227 327.1713 L743.212 323.3093 L724.4274 316.2466 L711.4445 307.5503 L703.8439 300.2771 L699.5353 296.1543 L686.3179 269.2799 L683.4283 242.8768 L681.3219 202.1024 Z"
         style="fill:none; fill-rule:evenodd;"
         id="path265" />
    </g>
    <g
       style="fill:rgb(179,179,179); text-rendering:optimizeSpeed; color-rendering:optimizeSpeed; image-rendering:optimizeSpeed; shape-rendering:crispEdges; stroke:rgb(179,179,179); color-interpolation:sRGB;"
       id="g267">
      <path
         style="stroke:none;"
         d="M636.1178 314.8646 L612.2471 318.6089 L617.2183 355.5121 L641.8799 351.6494 L653.8387 349.7769 L666.5062 345.1938 L678.1127 339.5182 L686.5801 333.3514 L698.5162 318.4785 L705.6426 309.7495 L709.7995 304.6883 L713.0888 299.9439 L715.2186 296.8715 L720.7199 287.212 L727.2269 271.3629 L729.6572 254.5102 L726.9789 199.4063 L702.7404 202.7821 L702.1889 247.5142 L699.3326 258.7273 L693.6953 270.9327 L688.2209 279.3838 L686.7368 281.6759 L683.1179 287.1949 L681.3907 289.8301 L674.2918 299.0382 L664.4529 306.2901 L661.8121 307.6403 L654.3086 311.4774 L646.961 312.8453 Z"
         id="path269" />
    </g>
    <g
       style="stroke-linecap:butt; text-rendering:geometricPrecision; color-rendering:optimizeQuality; image-rendering:optimizeQuality; stroke-linejoin:round; color-interpolation:linearRGB; stroke-width:1.6667;"
       id="g271">
      <path
         d="M612.2471 318.6089 L636.1178 314.8646 L646.961 312.8453 L654.3086 311.4774 L661.8121 307.6403 L664.4529 306.2901 L674.2918 299.0382 L681.3907 289.8301 L683.1179 287.1949 L686.7368 281.6759 L688.2209 279.3838 L693.6953 270.9327 L699.3326 258.7273 L702.1889 247.5142 L702.7404 202.7821 L726.9789 199.4063 L729.6572 254.5102 L727.2269 271.3629 L720.7199 287.212 L715.2186 296.8715 L713.0888 299.9439 L709.7995 304.6883 L705.6426 309.7495 L698.5162 318.4785 L686.5801 333.3514 L678.1127 339.5182 L666.5062 345.1938 L653.8387 349.7769 L641.8799 351.6494 L617.2183 355.5121 Z"
         style="fill:none; fill-rule:evenodd;"
         id="path273" />
    </g>
    <g
       style="fill:rgb(179,179,179); text-rendering:optimizeSpeed; color-rendering:optimizeSpeed; image-rendering:optimizeSpeed; shape-rendering:crispEdges; stroke:rgb(179,179,179); color-interpolation:sRGB;"
       id="g275">
      <path
         style="stroke:none;"
         d="M711.3807 302.8264 L702.7404 202.7821 L681.3219 202.1024 L683.1817 305.0257 L684.8231 402.279 L709.6414 403.3442 Z"
         id="path277" />
    </g>
    <g
       style="stroke-linecap:butt; text-rendering:geometricPrecision; color-rendering:optimizeQuality; image-rendering:optimizeQuality; stroke-linejoin:round; color-interpolation:linearRGB; stroke-width:1.6667;"
       id="g279">
      <path
         d="M702.7404 202.7821 L711.3807 302.8264 L709.6414 403.3442 L684.8231 402.279 L683.1817 305.0257 L681.3219 202.1024 Z"
         style="fill:none; fill-rule:evenodd;"
         id="path281" />
    </g>
    <g
       style="fill:rgb(179,179,179); text-rendering:optimizeSpeed; color-rendering:optimizeSpeed; image-rendering:optimizeSpeed; shape-rendering:crispEdges; stroke:rgb(179,179,179); color-interpolation:sRGB;"
       id="g283">
      <path
         style="stroke:none;"
         d="M726.9789 199.4063 L702.7404 202.7821 L705.8489 231.8799 L711.4884 304.5026 L709.6414 403.3442 L735.0154 407.4613 L737.4932 304.8903 L730.8876 229.9272 Z"
         id="path285" />
    </g>
    <g
       style="stroke-linecap:butt; text-rendering:geometricPrecision; color-rendering:optimizeQuality; image-rendering:optimizeQuality; stroke-linejoin:round; color-interpolation:linearRGB; stroke-width:1.6667;"
       id="g287">
      <path
         d="M709.6414 403.3442 L711.4884 304.5026 L705.8489 231.8799 L702.7404 202.7821 L726.9789 199.4063 L730.8876 229.9272 L737.4932 304.8903 L735.0154 407.4613 Z"
         style="fill:none; fill-rule:evenodd;"
         id="path289" />
    </g>
    <g
       style="fill:rgb(179,179,179); text-rendering:optimizeSpeed; color-rendering:optimizeSpeed; image-rendering:optimizeSpeed; shape-rendering:crispEdges; stroke:rgb(179,179,179); color-interpolation:sRGB;"
       id="g291">
      <path
         style="stroke:none;"
         d="M784.2961 293.5489 L803.7266 292.1555 L809.4114 261.938 L786.3593 260.4992 L765.9885 259.227 L757.8513 259.2419 L718.8176 259.3099 L712.324 260.2958 L672.554 266.3322 L645.7341 272.9101 L615.9171 283.9149 L612.2471 318.6089 L651.5898 312.8397 L678.7896 308.8508 L718.8034 302.9824 L726.5168 301.5776 L757.9158 295.858 L769.1091 294.8778 Z"
         id="path293" />
    </g>
    <g
       style="stroke-linecap:butt; text-rendering:geometricPrecision; color-rendering:optimizeQuality; image-rendering:optimizeQuality; stroke-linejoin:round; color-interpolation:linearRGB; stroke-width:1.6667;"
       id="g295">
      <path
         d="M803.7266 292.1555 L784.2961 293.5489 L769.1091 294.8778 L757.9158 295.858 L726.5168 301.5776 L718.8034 302.9824 L678.7896 308.8508 L651.5898 312.8397 L612.2471 318.6089 L615.9171 283.9149 L645.7341 272.9101 L672.554 266.3322 L712.324 260.2958 L718.8176 259.3099 L757.8513 259.2419 L765.9885 259.227 L786.3593 260.4992 L809.4114 261.938 Z"
         style="fill:none; fill-rule:evenodd;"
         id="path297" />
    </g>
    <g
       style="fill:rgb(179,179,179); text-rendering:optimizeSpeed; color-rendering:optimizeSpeed; image-rendering:optimizeSpeed; shape-rendering:crispEdges; stroke:rgb(179,179,179); color-interpolation:sRGB;"
       id="g299">
      <path
         style="stroke:none;"
         d="M678.7747 308.8529 L648.3806 313.3103 L612.2471 318.6089 L617.2183 355.5121 L654.0889 352.2355 L684.5467 348.2127 L725.6592 342.88 L757.7209 333.9771 L765.5334 332.3459 L791.2739 326.9721 L797.0785 325.7602 L803.7266 292.1555 L784.2961 293.5489 L757.9158 295.858 L751.0062 297.116 L718.8034 302.9824 Z"
         id="path301" />
    </g>
    <g
       style="stroke-linecap:butt; text-rendering:geometricPrecision; color-rendering:optimizeQuality; image-rendering:optimizeQuality; stroke-linejoin:round; color-interpolation:linearRGB; stroke-width:1.6667;"
       id="g303">
      <path
         d="M612.2471 318.6089 L648.3806 313.3103 L678.7747 308.8529 L718.8034 302.9824 L751.0062 297.116 L757.9158 295.858 L784.2961 293.5489 L803.7266 292.1555 L797.0785 325.7602 L791.2739 326.9721 L765.5334 332.3459 L757.7209 333.9771 L725.6592 342.88 L684.5467 348.2127 L654.0889 352.2355 L617.2183 355.5121 Z"
         style="fill:none; fill-rule:evenodd;"
         id="path305" />
    </g>
    <g
       style="fill-opacity:0.502; fill:rgb(255,0,0); text-rendering:optimizeSpeed; image-rendering:optimizeSpeed; color-rendering:optimizeSpeed; shape-rendering:crispEdges; stroke:rgb(255,0,0); color-interpolation:sRGB; stroke-opacity:0.502;"
       id="g307">
      <path
         style="stroke:none;"
         d="M900.9827 302.0539 L893.6996 301.3685 L803.7266 292.1555 L797.0785 325.7602 L892.1843 330.6775 L898.2589 330.9915 L1027.9956 342.5819 L1029.7235 342.8073 L1211.0658 366.4573 L1212.631 366.6599 L1212.631 354.3645 L1212.631 338.0437 L1212.631 337.7142 L1033.4126 314.5187 L1030.6613 314.2593 Z"
         id="path309" />
    </g>
    <g
       transform="translate(722.5244,396.2)"
       style="fill:lime; text-rendering:geometricPrecision; color-rendering:optimizeQuality; image-rendering:optimizeQuality; color-interpolation:linearRGB; stroke:lime;"
       id="g311">
      <circle
         r="9.7778"
         style="stroke:none;"
         cx="0"
         cy="0"
         id="circle313"
         d="m 9.7777996,0 c 0,5.4001296 -4.37767,9.7777996 -9.7777996,9.7777996 -5.4001296,0 -9.7777996,-4.37767 -9.7777996,-9.7777996 0,-5.4001296 4.37767,-9.7777996 9.7777996,-9.7777996 5.4001296,0 9.7777996,4.37767 9.7777996,9.7777996 z" />
    </g>
    <g
       transform="translate(722.5244,396.2)"
       style="stroke-linecap:butt; fill:lime; text-rendering:geometricPrecision; color-rendering:optimizeQuality; image-rendering:optimizeQuality; stroke:lime; color-interpolation:linearRGB; stroke-width:1.6667;"
       id="g315">
      <circle
         r="9.7778"
         style="fill:none;"
         cx="0"
         cy="0"
         id="circle317"
         d="m 9.7777996,0 c 0,5.4001296 -4.37767,9.7777996 -9.7777996,9.7777996 -5.4001296,0 -9.7777996,-4.37767 -9.7777996,-9.7777996 0,-5.4001296 4.37767,-9.7777996 9.7777996,-9.7777996 5.4001296,0 9.7777996,4.37767 9.7777996,9.7777996 z" />
    </g>
    <g
       style="fill:blue; text-rendering:optimizeSpeed; color-rendering:optimizeSpeed; image-rendering:optimizeSpeed; shape-rendering:crispEdges; stroke:blue; color-interpolation:sRGB;"
       id="g319">
      <path
         style="stroke:none;"
         d="M698.4243 152.2456 L684.2524 152.5418 L684.9633 186.5544 L699.1351 186.2582 ZM699.412 196.1057 L698.7026 162.1637 L698.424 152.2454 L692.9106 152.3609 L684.2547 152.7033 L684.3887 162.4628 L685.101 196.5472 L691.7966 196.4069 ZM699.8394 206.3762 L699.1222 172.072 L698.7012 162.0935 L693.2084 162.2083 L684.3873 162.5577 L684.3837 172.3803 L685.1003 206.6845 ZM700.405 216.4929 L699.6835 181.9661 L699.1165 171.797 L693.5018 171.9139 L684.3752 172.2754 L684.2363 182.2886 L684.9571 216.7721 ZM701.1124 226.5798 L700.3859 191.8383 L699.6708 181.3559 L693.791 181.4785 L684.2186 181.857 L683.9464 192.1821 L684.6714 226.8768 ZM701.9621 236.7135 L701.23 201.6836 L700.3639 190.7695 L694.0759 190.9006 L683.9174 191.3032 L683.5148 202.0542 L684.2462 237.0339 ZM702.9543 246.8947 L702.2144 211.4955 L701.1953 200.0386 L694.3566 200.1817 L683.4708 200.6126 L682.9407 211.8988 L683.6792 247.2427 ZM704.0898 257.122 L703.3406 221.2684 L702.1918 209.4288 L682.8804 209.7775 L682.2242 221.7093 L682.9726 257.504 ZM705.3677 267.396 L704.6072 230.9953 L703.3031 218.4115 L682.1462 218.7935 L681.7422 225.3572 L682.5091 267.8092 ZM706.0148 240.6988 L706.0056 240.589 L704.5526 227.2496 L681.784 227.6607 L682.6962 278.1513 L706.7887 277.7161 ZM708.3522 288.0816 L707.7916 261.2731 L705.6051 235.9495 L681.9413 236.3769 L682.884 288.5416 ZM710.0582 298.4931 L709.7562 284.0134 L706.3443 244.5133 L682.0958 244.9513 L683.0725 298.9808 ZM711.2737 308.9947 L711.3807 302.8264 L707.0722 252.9361 L682.2482 253.384 L683.1817 305.0257 L683.2568 309.4674 ZM711.0916 319.5352 L711.3807 302.8264 L707.7874 261.2164 L682.3985 261.6757 L683.1817 305.0257 L683.4347 320.0023 ZM710.9086 330.1239 L711.3807 302.8264 L708.4897 269.3557 L682.5459 269.8249 L683.1817 305.0257 L683.6133 330.5846 ZM710.7244 340.7599 L711.3807 302.8264 L709.1807 277.3532 L682.6905 277.8324 L683.1817 305.0257 L683.7926 341.2144 ZM710.5394 351.4431 L711.3807 302.8264 L709.859 285.2097 L682.8323 285.6981 L683.1817 305.0257 L683.9726 351.8911 ZM710.3537 362.1729 L711.3807 302.8264 L710.5252 292.9245 L682.9719 293.422 L683.1817 305.0257 L684.1533 362.6152 ZM710.1673 372.9495 L711.3807 302.8264 L711.1794 300.4975 L683.1086 301.0042 L683.1817 305.0257 L684.3355 373.3853 ZM684.5184 384.203 L709.9802 383.7728 L711.2914 307.972 L683.2391 308.4454 ZM684.7012 395.066 L709.7917 394.6429 L711.1652 315.2749 L683.3624 315.7441 ZM709.4933 406.8879 L709.6414 403.3442 L711.0412 322.4368 L683.4836 322.9018 L684.8231 402.279 L684.687 405.9737 ZM709.0347 417.8353 L709.6414 403.3442 L710.92 329.4563 L683.6019 329.9177 L684.8231 402.279 L684.2838 416.9231 ZM708.574 428.8287 L709.6414 403.3442 L710.801 336.3342 L683.7175 336.7912 L684.8231 402.279 L683.8784 427.9187 ZM708.1119 439.8675 L709.6414 403.3442 L710.6847 343.0702 L683.8316 343.5234 L684.8231 402.279 L683.4715 438.9589 ZM707.6477 450.9516 L709.6414 403.3442 L710.5706 349.6642 L683.9429 350.1135 L684.8231 402.279 L683.0626 450.0452 ZM707.1814 462.0804 L709.6414 403.3442 L710.4586 356.1166 L684.0513 356.5624 L684.8231 402.279 L682.6522 461.1768 ZM706.7136 473.2546 L709.6414 403.3442 L710.3495 362.4274 L684.1583 362.8696 L684.8231 402.279 L682.2404 472.3531 ZM706.2437 484.4741 L709.6414 403.3442 L710.2425 368.5963 L684.2618 369.035 L684.8231 402.279 L681.8273 483.574 ZM705.7716 495.7375 L709.6414 403.3442 L710.1382 374.6235 L684.3638 375.058 L684.8231 402.279 L681.4119 494.8396 ZM705.5463 501.1198 L709.6414 403.3442 L710.0369 380.5083 L684.4631 380.9399 L684.8231 402.279 L681.2135 500.2232 L680.9307 506.147 L705.2826 507.3086 ZM902.7203 295.2716 L904.2903 281.1838 L870.4797 277.4159 L868.9097 291.5037 ZM904.15 281.1656 L897.2681 280.2584 L863.4785 276.4928 L862.0063 290.8769 L895.6663 294.6283 L902.7205 295.2719 L903.3768 289.3822 ZM897.2596 280.2492 L890.3103 279.0557 L856.4774 275.2851 L854.9189 290.5147 L888.615 294.2704 L895.8017 294.6432 L896.4672 288.672 ZM890.8291 279.1131 L883.4525 277.5779 L849.5054 273.7946 L847.803 290.4354 L881.5998 294.2017 L889.1331 294.3278 ZM884.5681 277.702 L876.7264 275.8301 L842.5618 272.0227 L840.6574 290.6374 L874.654 294.4256 L882.7153 294.3257 ZM878.6202 276.0414 L870.1677 273.8152 L835.6479 269.9681 L833.4835 291.1214 L867.8124 294.9473 L876.5479 294.6368 ZM872.9821 274.1284 L863.8094 271.538 L828.7625 267.632 L826.2805 291.8876 L861.1091 295.7687 L870.6305 295.2612 L872.9417 274.5197 ZM867.6466 271.9625 L857.6851 269.0013 L821.9053 265.0139 L819.0491 292.9358 L854.5765 296.8949 L864.9633 296.1982 L867.4446 273.9321 ZM862.6216 269.545 L856.3803 267.6158 L815.0262 262.6169 L811.9183 292.9933 L857.2322 297.6292 L859.547 297.4492 L862.2296 273.375 ZM857.8141 267.7894 L809.4114 261.938 L807.9861 261.7941 L804.8677 292.2724 L854.5652 297.3563 L857.2968 272.8477 ZM853.1689 267.2281 L809.4114 261.938 L796.3655 260.6183 L797.7922 292.422 L803.7266 292.1555 L849.9116 296.8807 L852.6452 272.3509 ZM848.8059 266.7 L809.4114 261.938 L789.2383 259.8975 L790.7118 292.7395 L803.7266 292.1555 L845.54 296.4335 L848.2758 271.8838 ZM809.4114 261.938 L787.1376 259.6848 L782.1239 259.4361 L783.6314 293.057 L788.6245 292.8331 L803.7266 292.1555 L841.4505 296.0146 L844.1884 271.4472 L844.7242 266.2068 ZM809.4114 261.938 L787.1376 259.6848 L775.0137 259.0831 L776.551 293.3745 L788.6245 292.8331 L803.7266 292.1555 L837.6431 295.6255 L840.3824 271.0404 L840.9239 265.7475 ZM787.1376 259.6848 L772.8371 258.9754 L768.2203 257.4735 L756.8754 292.3426 L758.7472 292.6807 L765.3655 293.8763 L774.385 293.4716 L788.6245 292.8331 L803.7266 292.1555 L834.1171 295.2648 L836.8593 270.6634 L837.4056 265.3222 L809.4114 261.938 ZM787.1376 259.6848 L772.8371 258.9754 L765.2804 256.5167 L761.5616 255.0546 L747.8962 289.8173 L753.1445 291.6686 L758.7472 292.6807 L765.3655 293.8763 L774.385 293.4716 L788.6245 292.8331 L803.7266 292.1555 L830.8738 294.9331 L833.6174 270.3175 L834.1681 264.931 L809.4114 261.938 ZM765.2804 256.5167 L757.4955 253.4563 L755.2722 251.8914 L733.7701 282.4414 L736.5052 284.3026 L741.0738 287.4111 L753.1445 291.6686 L758.7472 292.6807 L765.3655 293.8763 L774.385 293.4716 L788.6245 292.8331 L803.7266 292.1555 L827.9127 294.6297 L830.6569 270.0007 L831.2126 264.5731 L809.4114 261.938 L787.1376 259.6848 L772.8371 258.9754 ZM765.2804 256.5167 L757.4955 253.4563 L750.177 248.3051 L749.5603 247.7105 L723.6612 274.5643 L725.9824 277.1421 L736.5052 284.3026 L741.0738 287.4111 L753.1445 291.6686 L758.7472 292.6807 L765.3655 293.8763 L774.385 293.4716 L788.6245 292.8331 L803.7266 292.1555 L825.2328 294.3555 L827.9792 269.7151 L828.5385 264.2499 L809.4114 261.938 L787.1376 259.6848 L772.8371 258.9754 ZM765.2804 256.5167 L757.4955 253.4563 L750.177 248.3051 L744.4595 242.7904 L718.9062 269.2849 L722.4783 273.251 L725.9824 277.1421 L736.5052 284.3026 L741.0738 287.4111 L753.1445 291.6686 L758.7472 292.6807 L765.3655 293.8763 L774.385 293.4716 L788.6245 292.8331 L803.7266 292.1555 L822.8359 294.1102 L825.583 269.4585 L826.1458 263.9607 L809.4114 261.938 L787.1376 259.6848 L772.8371 258.9754 ZM743.7153 242.0731 L741.8768 240.1588 L739.5216 237.7072 L714.2759 261.9599 L715.4985 265.5008 L722.4783 273.251 L725.9824 277.1421 L736.5052 284.3026 L741.0738 287.4111 L753.1445 291.6686 L758.7472 292.6807 L765.3655 293.8763 L774.385 293.4716 L788.6245 292.8331 L803.7266 292.1555 L820.7203 293.8941 L823.4688 269.2324 L824.0344 263.7056 L809.4114 261.938 L787.1376 259.6848 L772.8371 258.9754 L765.2804 256.5167 L757.4955 253.4563 L750.177 248.3051 ZM743.7153 242.0731 L741.8768 240.1588 L738.6031 236.7511 L735.8481 231.6906 L708.8909 246.366 L709.09 246.9429 L711.2765 253.2749 L715.4985 265.5008 L722.4783 273.251 L725.9824 277.1421 L736.5052 284.3026 L741.0738 287.4111 L753.1445 291.6686 L758.7472 292.6807 L765.3655 293.8763 L774.385 293.4716 L788.6245 292.8331 L803.7266 292.1555 L818.8875 293.7062 L821.6367 269.0368 L822.2044 263.4844 L809.4114 261.938 L787.1376 259.6848 L772.8371 258.9754 L765.2804 256.5167 L757.4955 253.4563 L750.177 248.3051 ZM741.8768 240.1588 L738.6031 236.7511 L734.3237 228.8904 L733.381 225.1063 L706.1267 231.8961 L706.158 232.1655 L707.2607 241.6457 L709.09 246.9429 L711.2765 253.2749 L715.4985 265.5008 L722.4783 273.251 L725.9824 277.1421 L736.5052 284.3026 L741.0738 287.4111 L753.1445 291.6686 L758.7472 292.6807 L765.3655 293.8763 L774.385 293.4716 L788.6245 292.8331 L803.7266 292.1555 L817.336 293.5475 L820.0859 268.8709 L820.6565 263.2973 L809.4114 261.938 L787.1376 259.6848 L772.8371 258.9754 L765.2804 256.5167 L757.4955 253.4563 L750.177 248.3051 L743.7153 242.0731 ZM741.8768 240.1588 L738.6031 236.7511 L734.3237 228.8904 L731.668 218.2293 L705.301 224.7973 L706.158 232.1655 L707.2607 241.6457 L709.09 246.9429 L711.2765 253.2749 L715.4985 265.5008 L722.4783 273.251 L725.9824 277.1421 L736.5052 284.3026 L741.0738 287.4111 L753.1445 291.6686 L758.7472 292.6807 L765.3655 293.8763 L774.385 293.4716 L788.6245 292.8331 L803.7266 292.1555 L816.0667 293.4178 L818.8173 268.7356 L819.3892 263.1442 L809.4114 261.938 L787.1376 259.6848 L772.8371 258.9754 L765.2804 256.5167 L757.4955 253.4563 L750.177 248.3051 L743.7153 242.0731 ZM741.8768 240.1588 L738.6031 236.7511 L734.3237 228.8904 L729.9549 211.3523 L704.4753 217.6992 L706.158 232.1655 L707.2607 241.6457 L709.09 246.9429 L711.2765 253.2749 L715.4985 265.5008 L722.4783 273.251 L725.9824 277.1421 L736.5052 284.3026 L741.0738 287.4111 L753.1445 291.6686 L758.7472 292.6807 L765.3655 293.8763 L774.385 293.4716 L788.6245 292.8331 L803.7266 292.1555 L815.0793 293.3171 L817.8307 268.63 L818.4041 263.0252 L809.4114 261.938 L787.1376 259.6848 L772.8371 258.9754 L765.2804 256.5167 L757.4955 253.4563 L750.177 248.3051 L743.7153 242.0731 ZM741.8768 240.1588 L738.6031 236.7511 L734.3237 228.8904 L728.2411 204.4746 L703.6497 210.6011 L706.158 232.1655 L707.2607 241.6457 L709.09 246.9429 L711.2765 253.2749 L715.4985 265.5008 L722.4783 273.251 L725.9824 277.1421 L736.5052 284.3026 L741.0738 287.4111 L753.1445 291.6686 L758.7472 292.6807 L765.3655 293.8763 L774.385 293.4716 L788.6245 292.8331 L803.7266 292.1555 L814.3748 293.2448 L817.1262 268.5548 L817.7003 262.9401 L809.4114 261.938 L787.1376 259.6848 L772.8371 258.9754 L765.2804 256.5167 L757.4955 253.4563 L750.177 248.3051 L743.7153 242.0731 ZM738.6031 236.7511 L734.3237 228.8904 L726.9789 199.4063 L726.8818 197.5445 L702.583 198.8131 L702.7404 202.7821 L706.158 232.1655 L707.2607 241.6457 L709.09 246.9429 L711.2765 253.2749 L715.4985 265.5008 L722.4783 273.251 L725.9824 277.1421 L736.5052 284.3026 L741.0738 287.4111 L753.1445 291.6686 L758.7472 292.6807 L765.3655 293.8763 L774.385 293.4716 L788.6245 292.8331 L803.7266 292.1555 L813.9517 293.2016 L816.7031 268.5095 L817.2786 262.8891 L809.4114 261.938 L787.1376 259.6848 L772.8371 258.9754 L765.2804 256.5167 L757.4955 253.4563 L750.177 248.3051 L743.7153 242.0731 L741.8768 240.1588 ZM738.6031 236.7511 L734.3237 228.8904 L726.9789 199.4063 L726.5125 190.4669 L702.3024 191.7306 L702.7404 202.7821 L706.158 232.1655 L707.2607 241.6457 L709.09 246.9429 L711.2765 253.2749 L715.4985 265.5008 L722.4783 273.251 L725.9824 277.1421 L736.5052 284.3026 L741.0738 287.4111 L753.1445 291.6686 L758.7472 292.6807 L765.3655 293.8763 L774.385 293.4716 L788.6245 292.8331 L803.7266 292.1555 L813.9517 293.2016 L814.9659 284.1013 L817.1376 262.8721 L809.4114 261.938 L787.1376 259.6848 L772.8371 258.9754 L765.2804 256.5167 L757.4955 253.4563 L750.177 248.3051 L743.7153 242.0731 L741.8768 240.1588 ZM738.6031 236.7511 L734.3237 228.8904 L726.9789 199.4063 L726.1425 183.3886 L702.0223 184.648 L702.7404 202.7821 L706.158 232.1655 L707.2607 241.6457 L709.09 246.9429 L711.2765 253.2749 L715.4985 265.5008 L722.4783 273.251 L725.9824 277.1421 L736.5052 284.3026 L741.0738 287.4111 L753.1445 291.6686 L758.7472 292.6807 L765.3655 293.8763 L774.385 293.4716 L788.6245 292.8331 L803.7266 292.1555 L814.0339 293.2101 L817.1376 262.8721 L809.4114 261.938 L787.1376 259.6848 L772.8371 258.9754 L765.2804 256.5167 L757.4955 253.4563 L750.177 248.3051 L743.7153 242.0731 L741.8768 240.1588 ZM738.6031 236.7511 L734.3237 228.8904 L726.9789 199.4063 L725.7733 176.311 L701.7417 177.5655 L702.7404 202.7821 L706.158 232.1655 L707.2607 241.6457 L709.09 246.9429 L711.2765 253.2749 L715.4985 265.5008 L722.4783 273.251 L725.9824 277.1421 L736.5052 284.3026 L741.0738 287.4111 L753.1445 291.6686 L758.7472 292.6807 L765.3655 293.8763 L774.385 293.4716 L788.6245 292.8331 L803.7266 292.1555 L814.0339 293.2101 L817.1376 262.8721 L809.4114 261.938 L787.1376 259.6848 L772.8371 258.9754 L765.2804 256.5167 L757.4955 253.4563 L750.177 248.3051 L743.7153 242.0731 L741.8768 240.1588 ZM738.6031 236.7511 L734.3237 228.8904 L726.9789 199.4063 L725.4041 169.2334 L701.461 170.483 L702.7404 202.7821 L706.158 232.1655 L707.2607 241.6457 L709.09 246.9429 L711.2765 253.2749 L715.4985 265.5008 L722.4783 273.251 L725.9824 277.1421 L736.5052 284.3026 L741.0738 287.4111 L753.1445 291.6686 L758.7472 292.6807 L765.3655 293.8763 L774.385 293.4716 L788.6245 292.8331 L803.7266 292.1555 L814.0339 293.2101 L817.1376 262.8721 L809.4114 261.938 L787.1376 259.6848 L772.8371 258.9754 L765.2804 256.5167 L757.4955 253.4563 L750.177 248.3051 L743.7153 242.0731 L741.8768 240.1588 ZM738.6031 236.7511 L734.3237 228.8904 L726.9789 199.4063 L725.0341 162.1552 L701.1804 163.4004 L702.7404 202.7821 L706.158 232.1655 L707.2607 241.6457 L709.09 246.9429 L711.2765 253.2749 L715.4985 265.5008 L722.4783 273.251 L725.9824 277.1421 L736.5052 284.3026 L741.0738 287.4111 L753.1445 291.6686 L758.7472 292.6807 L765.3655 293.8763 L774.385 293.4716 L788.6245 292.8331 L803.7266 292.1555 L814.0339 293.2101 L817.1376 262.8721 L809.4114 261.938 L787.1376 259.6848 L772.8371 258.9754 L765.2804 256.5167 L757.4955 253.4563 L750.177 248.3051 L743.7153 242.0731 L741.8768 240.1588 Z"
         id="path321" />
    </g>
  </g>
  <path
     style="fill:#7fff2a;stroke:none"
     d="m 711.21683,408.61692 2.6968,-48.2452 5.03727,-21.28611 6.32828,-14.44893 11.33083,-11.54525 13.57164,-5.87229 18.74635,-2.81157 14.51526,-1.76214 23.88774,-0.73536 24.35886,1.44805 45.31746,3.96067 -0.62059,15.64029 -46.68686,-3.63147 -26.56495,-1.09171 -25.24678,1.76969 -17.62441,3.79608 -10.5879,4.99499 -6.35096,5.8874 -5.19431,9.98999 -3.04559,17.95807 -3.12565,46.86965 z"
     id="path3302"
     inkscape:connector-curvature="0"
     sodipodi:nodetypes="cccccccccccccccccccccc"
     clip-path="url(#clipPath4233)" />
</svg>
